<?xml version="1.0" encoding="utf-8"?><svg viewBox="0 0 205.845 260.433" xmlns="http://www.w3.org/2000/svg" xmlns:xlink="http://www.w3.org/1999/xlink"><style>:root>svg{display:none}:root>svg:target{display:block}</style><svg viewBox="0 0 56.112 62.723" id="android-icon" xmlns="http://www.w3.org/2000/svg"><defs><clipPath id="aa" clipPathUnits="userSpaceOnUse"><path d="M0 47.042h42.084V0H0z"/></clipPath></defs><g clip-path="url(#aa)" transform="matrix(1.33333 0 0 -1.33333 0 62.723)"><path d="M34.144 33.034h-26.2c-.008-.11-.017-.22-.017-.333V13.946c0-1.926 1.457-3.49 3.317-3.627V2.885a2.884 2.884 0 115.77 0v7.42h8.058v-7.42a2.884 2.884 0 115.77 0v7.434c1.859.137 3.316 1.701 3.316 3.627v18.755c0 .113-.004.223-.014.333m-31.258-1.67a2.886 2.886 0 002.886-2.885V16.1A2.885 2.885 0 100 16.1v12.378a2.885 2.885 0 002.886 2.885m36.312.001a2.885 2.885 0 002.886-2.885V16.1a2.885 2.885 0 10-5.77 0v12.378a2.884 2.884 0 002.884 2.885M14.18 40.239c0 .805.665 1.46 1.49 1.462.823.002 1.493-.648 1.496-1.454v-.008c.002-.805-.664-1.46-1.488-1.462-.825-.002-1.495.649-1.498 1.454zm11.143 0c-.002.805.664 1.46 1.488 1.462.827.002 1.494-.648 1.498-1.454v-.008c.002-.805-.664-1.46-1.49-1.462-.823-.002-1.493.649-1.496 1.454zM8.03 35.076h26.025c-.039 2.783-1.234 5.322-3.186 7.275l2.446 4.235a.304.304 0 01-.527.304l-2.372-4.107c-2.052 1.853-6.249 3.4-9.374 3.4-3.016 0-7.322-1.547-9.374-3.4L9.296 46.89a.304.304 0 01-.526-.304l2.445-4.235c-1.95-1.954-3.147-4.493-3.185-7.276" fill="#a4c639"/></g></svg><svg viewBox="0 0 61.613 75.669" id="apple-icon" xmlns="http://www.w3.org/2000/svg"><defs><clipPath id="ba" clipPathUnits="userSpaceOnUse"><path d="M0 56.751h46.21V0H0z"/></clipPath></defs><g clip-path="url(#ba)" transform="matrix(1.33333 0 0 -1.33333 0 75.669)"><path d="M31.452 47.69c1.982 2.4 3.316 5.739 2.952 9.062-2.856-.116-6.31-1.905-8.36-4.303-1.836-2.122-3.445-5.52-3.01-8.777 3.184-.246 6.436 1.619 8.418 4.018m7.141-21.088c.08-8.59 7.535-11.447 7.617-11.482-.063-.203-1.19-4.075-3.928-8.073C39.917 3.59 37.462.146 33.595.074c-3.799-.07-5.022 2.253-9.366 2.253-4.344 0-5.702-2.182-9.298-2.323-3.732-.142-6.576 3.739-8.96 7.184-4.875 7.046-8.599 19.91-3.598 28.593 2.484 4.313 6.925 7.043 11.744 7.114 3.666.068 7.126-2.467 9.365-2.467 2.241 0 6.445 3.05 10.866 2.602 1.85-.078 7.043-.748 10.38-5.63-.27-.167-6.198-3.62-6.135-10.798" fill="#fff"/></g></svg><svg viewBox="0 0 42.56 42.56" id="contrast-icon" xmlns="http://www.w3.org/2000/svg"><defs><clipPath id="ca" clipPathUnits="userSpaceOnUse"><path d="M0 31.92h31.92V0H0z"/></clipPath></defs><g clip-path="url(#ca)" transform="matrix(1.33333 0 0 -1.33333 0 42.56)"><path d="M15.96 31.92C7.146 31.92 0 24.775 0 15.96 0 7.147 7.146 0 15.96 0s15.96 7.147 15.96 15.96c0 8.815-7.146 15.96-15.96 15.96m0-4c6.595 0 11.96-5.365 11.96-11.96C27.92 9.365 22.555 4 15.96 4 9.365 4 4 9.365 4 15.96c0 6.595 5.365 11.96 11.96 11.96"/><path d="M15.96 7.629a8.519 8.519 0 018.52 8.52 8.518 8.518 0 01-8.52 8.518"/></g></svg><svg viewBox="0 0 64 64" id="crop-icon" xmlns="http://www.w3.org/2000/svg"><defs><clipPath id="da" clipPathUnits="userSpaceOnUse"><path d="M0 48h48V0H0z"/></clipPath></defs><g clip-path="url(#da)" transform="matrix(1.33333 0 0 -1.33333 0 64)"><path d="M14 14v32h-4v-8H2v-4h8V14c0-2.21 1.79-4 4-4h20V2h4v8h8v4zm20 4h4v16c0 2.21-1.79 4-4 4H18v-4h16z"/></g></svg><svg viewBox="0 0 31.822 31.822" id="cross-button" xmlns="http://www.w3.org/2000/svg"><defs><clipPath id="ea" clipPathUnits="userSpaceOnUse"><path d="M0 23.867h23.867V0H0z"/></clipPath></defs><g clip-path="url(#ea)" transform="matrix(1.33333 0 0 -1.33333 0 31.822)"><path d="M15.087 11.934l8.56 8.559a.75.75 0 010 1.06l-2.093 2.094a.75.75 0 01-1.06 0l-8.56-8.56-8.56 8.56a.771.771 0 01-1.062 0L.22 21.554a.748.748 0 010-1.061l8.56-8.56L.22 3.376a.748.748 0 010-1.061L2.313.22a.748.748 0 011.06 0l8.561 8.56 8.56-8.56a.75.75 0 011.06 0l2.093 2.094a.75.75 0 010 1.06z"/></g></svg><svg viewBox="0 0 64 64" id="fill-icon" xmlns="http://www.w3.org/2000/svg"><defs><clipPath id="fa" clipPathUnits="userSpaceOnUse"><path d="M0 48h48V0H0z"/></clipPath></defs><g clip-path="url(#fa)" transform="matrix(1.33333 0 0 -1.33333 0 64)"><path d="M38 25s-4-4.33-4-7c0-2.21 1.79-4 4-4s4 1.79 4 4c0 2.67-4 7-4 7m-27.59 3L20 37.58 29.59 28zm22.71 2.12L15.24 48l-2.83-2.83 4.76-4.76L6.88 30.12a3 3 0 010-4.24l11-11c.58-.59 1.35-.88 2.12-.88s1.54.29 2.12.88l11 11a3 3 0 010 4.24M48 5H0v3h48z"/></g></svg><svg viewBox="0 0 16.727 15.987" id="heart-icon" xmlns="http://www.w3.org/2000/svg"><defs><clipPath id="ga" clipPathUnits="userSpaceOnUse"><path d="M0 11.99h12.545V0H0z"/></clipPath></defs><g clip-path="url(#ga)" transform="matrix(1.33333 0 0 -1.33333 0 15.987)"><path d="M1.99 6.706c.208-.255 2.471-2.839 4.243-4.858l4.323 4.944c.34.37.52.86.52 1.4a2.333 2.333 0 01-2.33 2.33c-.729 0-1.42-.343-1.9-.943a.757.757 0 00-.585-.275.729.729 0 00-.576.294 2.332 2.332 0 01-1.886.924 2.332 2.332 0 01-2.33-2.33c0-.678.275-1.172.506-1.467.005-.006.011-.012.015-.019M6.235 0a.737.737 0 00-.552.25C1.886 4.572 1.04 5.546.825 5.82l-.004-.003a3.866 3.866 0 00-.82 2.373 3.803 3.803 0 003.798 3.8c.933 0 1.803-.32 2.484-.899.696.578 1.56.898 2.463.898a3.803 3.803 0 003.8-3.799c0-.909-.32-1.754-.898-2.38L6.788.25A.736.736 0 006.236 0z" fill="#d22856"/></g></svg><svg viewBox="0 0 205.845 260.433" id="html-academy-logo" xmlns="http://www.w3.org/2000/svg"><defs><clipPath id="ha" clipPathUnits="userSpaceOnUse"><path d="M0 195.325h154.384V0H0z"/></clipPath></defs><path d="M191.803 93.807l-89.36-52.677v-.014l-.01.007-.012-.007v.014L14.043 93.746V23.438l88.881-9.319 88.879 9.319zm-.072 9.323l-24.315 14.325-11.225 6.613-53.532-31.845-.088 9.268 45.756 27.21-.406.24-.985.58-6.501 3.829-37.776-22.472-.088 9.268 29.816 17.73-7.035 4.706-.17.102-22.523-13.268-.088 9.267 14.778 8.704-15.054 9.039-88.059-52.346 88.185-53.006v.01zm.072 88.078l-88.88 52.884-88.88-52.884v-76.82l88.498 52.674.148 9.546-60.712-36.133-.089 9.268 60.953 36.633.151 9.8-60.933-36.248-.088 9.267 60.952 36.633 61.536-36.82v-9.31l-.076.045V129.47l27.42-16.375zM103.996.782L102.92.67.667 11.39v187.424l102.256 60.844 102.256-60.844V11.39z"/><g clip-path="url(#ha)" transform="matrix(1.33333 0 0 -1.33333 0 260.433)"><path d="M143.852 124.97l-67.02 39.508v.01l-.008-.005-.008.005v-.01l-66.284-39.462v52.73l66.661 6.99 66.66-6.99zm-.054-6.992l-18.236-10.744-8.419-4.96-40.149 23.884-.066-6.951L111.245 98.8l-.304-.18-.739-.435-4.876-2.872-28.332 16.854-.066-6.951L99.29 91.918l-5.276-3.53-.128-.076-16.892 9.95-.066-6.95 11.084-6.527-11.29-6.78-66.045 39.26 66.14 39.755v-.007zm.054-66.06l-66.66-39.662-66.66 39.663v57.615l66.374-39.505.111-7.16-45.534 27.1-.067-6.951 45.715-27.475.113-7.35-45.7 27.186-.066-6.95 45.714-27.475 46.152 27.616v6.982l-.057-.034v22.705l20.565 12.28zm-65.855 142.82l-.807.085-76.69-8.04V46.215L77.192.582l76.692 45.633v140.568z" fill="none"/></g></svg><svg viewBox="0 0 195.067 53.832" id="logo-footer-desktop" xmlns="http://www.w3.org/2000/svg"><defs><clipPath id="ia" clipPathUnits="userSpaceOnUse"><path d="M0 40.374h146.3V0H0z"/></clipPath></defs><g clip-path="url(#ia)" transform="matrix(1.33333 0 0 -1.33333 0 53.832)"><path d="M79.988 10.733c3.734 0 6.182 1.996 6.182 4.96v.061c0 3.221-2.414 4.894-6.053 4.894h-5.7v-9.917h5.57zm-8.114 10.98c0 .708.58 1.288 1.256 1.288h7.18c5.087 0 8.436-2.705 8.436-7.147v-.062c0-4.86-4.057-7.373-8.854-7.373h-5.474V1.594c0-.709-.58-1.287-1.29-1.287-.676 0-1.256.58-1.256 1.287zm21.729.161c0 .708.579 1.288 1.255 1.288.709 0 1.288-.58 1.288-1.288V1.591A1.29 1.29 0 0094.858.304c-.676 0-1.255.579-1.255 1.287zm9.141-.032c0 .676.58 1.256 1.256 1.256h.354c.58 0 .935-.29 1.288-.74l13.684-17.45v16.998c0 .676.547 1.256 1.256 1.256.676 0 1.225-.58 1.225-1.256V1.558c0-.678-.48-1.191-1.158-1.191h-.13c-.546 0-.935.322-1.316.773l-13.977 17.866V1.558c0-.678-.546-1.258-1.257-1.258-.676 0-1.223.58-1.223 1.258v20.284zm25.429.032c0 .708.58 1.288 1.257 1.288a1.29 1.29 0 001.286-1.288V9.543l12.848 13.168c.29.257.58.451.998.451.675 0 1.224-.612 1.224-1.256 0-.354-.162-.644-.42-.901l-7.984-7.92 8.564-10.561c.225-.291.354-.546.354-.936 0-.676-.576-1.288-1.284-1.288-.482 0-.808.26-1.03.58l-8.4 10.465-4.864-4.862V1.588A1.29 1.29 0 00129.436.3c-.677 0-1.257.58-1.257 1.288v20.286z"/><path d="M98.498 30.499a3.623 3.623 0 00-3.623 3.624 3.625 3.625 0 00-3.625-3.624 3.625 3.625 0 003.625-3.624 3.623 3.623 0 003.623 3.624m-55.404-9.438c.246 0 .489-.014.73-.033a2.491 2.491 0 01-2.136 1.221c-.877 0-1.614.568-1.884 1.354a11.977 11.977 0 01-2.09-.816c.063-.017.123-.038.189-.038a2 2 0 002-2c0-.096-.015-.188-.028-.281 1 .382 2.084.593 3.219.593" fill="#d22856"/><path d="M60.462 12.358l-5.175 21.365c-.361 2.347-2.593 6.651-8.6 6.651a1.5 1.5 0 110-3c4.857 0 5.576-3.729 5.64-4.143l4.767-19.7H55.02c-.445 3.556-2.453 6.627-5.305 8.521a2.504 2.504 0 01-1.53-2.303c0-.088-.014-.17-.025-.256a9.036 9.036 0 003.829-5.965c.082-.488.135-.987.135-1.5 0-.512-.053-1.012-.135-1.5-.716-4.272-4.421-7.53-8.896-7.53-4.475 0-8.181 3.258-8.896 7.53a9.035 9.035 0 00-.135 1.5c0 .513.053 1.012.135 1.5.147.88.427 1.712.808 2.484a1.993 1.993 0 00-1.852 1.984.738.738 0 01-.192.487 11.945 11.945 0 01-1.795-4.957h-1.82c-.741 5.928-5.802 10.532-11.927 10.532S6.235 19.458 5.493 13.53H3.42l4.767 19.701c.063.414.783 4.143 5.639 4.143a1.5 1.5 0 110 3c-6.006 0-8.238-4.304-8.6-6.65L.053 12.357c-.266-1.109.53-1.826 1.426-1.826.012 0 .023-.004.036-.004h3.982c.079-.629.215-1.237.387-1.83a.722.722 0 01.102.352 2 2 0 002 2c.166 0 .324-.024.478-.06a8.324 8.324 0 00-.074 1.041c0 .512.053 1.011.135 1.5.715 4.27 4.42 7.531 8.896 7.531 4.475 0 8.18-3.26 8.896-7.53.082-.49.135-.989.135-1.5 0-.514-.053-1.014-.135-1.5C25.6 6.257 21.895 3 17.42 3c-2.022 0-3.883.67-5.386 1.794a1.98 1.98 0 00-1.3-.49.75.75 0 01-.748-.749c0-.289-.065-.563-.176-.812A11.94 11.94 0 0117.424 0c6.125 0 11.185 4.604 11.927 10.528h1.814C31.907 4.602 36.967 0 43.092 0s11.186 4.604 11.927 10.528h3.98c.013 0 .024.006.037.006.895-.002 1.692.715 1.426 1.824" fill="#d22856"/><path d="M50.686 24.249a4.499 4.499 0 00-4.499 4.499 4.499 4.499 0 00-4.499-4.499 4.499 4.499 0 004.499-4.499 4.498 4.498 0 004.499 4.499m-12.782-3.501a2.748 2.748 0 00-2.75 2.749 2.748 2.748 0 00-2.748-2.749 2.747 2.747 0 002.749-2.749 2.748 2.748 0 002.749 2.749M10.734 6.302a2.748 2.748 0 00-2.75 2.75c0-1.52-1.23-2.75-2.748-2.75a2.747 2.747 0 002.749-2.748 2.748 2.748 0 002.749 2.748"/></g></svg><svg viewBox="0 0 195.067 53.835" id="logo-footer-tablet" xmlns="http://www.w3.org/2000/svg"><defs><clipPath id="ja" clipPathUnits="userSpaceOnUse"><path d="M0 40.376h146.3V0H0z"/></clipPath></defs><g clip-path="url(#ja)" transform="matrix(1.33333 0 0 -1.33333 0 53.835)"><path d="M79.988 10.735c3.734 0 6.182 1.996 6.182 4.96v.061c0 3.221-2.414 4.894-6.053 4.894h-5.7v-9.917h5.57zm-8.114 10.98c0 .708.58 1.288 1.256 1.288h7.18c5.087 0 8.436-2.705 8.436-7.147v-.062c0-4.86-4.057-7.373-8.854-7.373h-5.474V1.596c0-.709-.58-1.287-1.29-1.287-.676 0-1.256.58-1.256 1.287zm21.729.161c0 .708.579 1.288 1.255 1.288.709 0 1.288-.58 1.288-1.288V1.593A1.29 1.29 0 0094.858.306c-.676 0-1.255.579-1.255 1.287zm9.141-.032c0 .676.58 1.256 1.256 1.256h.354c.58 0 .935-.29 1.288-.74l13.684-17.45v16.998c0 .676.547 1.256 1.256 1.256.676 0 1.225-.58 1.225-1.256V1.56c0-.678-.48-1.191-1.158-1.191h-.13c-.546 0-.935.322-1.316.773l-13.977 17.866V1.56c0-.678-.546-1.258-1.257-1.258-.676 0-1.223.58-1.223 1.258v20.284zm25.429.032c0 .708.58 1.288 1.257 1.288a1.29 1.29 0 001.286-1.288V9.545l12.848 13.168c.29.257.58.451.998.451.675 0 1.224-.612 1.224-1.256 0-.354-.162-.644-.42-.901l-7.984-7.92 8.564-10.561c.225-.291.354-.546.354-.936 0-.676-.576-1.288-1.284-1.288-.482 0-.808.26-1.03.58l-8.4 10.465-4.864-4.862V1.59a1.29 1.29 0 00-1.286-1.288c-.677 0-1.257.58-1.257 1.288v20.286z"/><path d="M51.99 10.532c-.716-4.272-4.42-7.53-8.896-7.53-4.475 0-8.18 3.258-8.896 7.53a9.035 9.035 0 00-.135 1.5c0 .512.053 1.011.135 1.5.716 4.271 4.421 7.531 8.896 7.531 4.475 0 8.181-3.26 8.896-7.53.082-.49.135-.989.135-1.5 0-.513-.053-1.013-.135-1.5m-25.675 0C25.6 6.26 21.895 3 17.42 3s-8.18 3.26-8.896 7.531a9.035 9.035 0 00-.135 1.5c0 .512.053 1.011.135 1.5.715 4.271 4.421 7.531 8.896 7.531 4.475 0 8.18-3.26 8.896-7.53.082-.49.135-.989.135-1.5 0-.513-.053-1.013-.135-1.5m34.147 1.827l-5.175 21.365c-.36 2.348-2.593 6.651-8.599 6.651a1.5 1.5 0 110-3c4.856 0 5.575-3.729 5.64-4.143l4.766-19.7h-2.073c-.742 5.926-5.802 10.53-11.927 10.53s-11.186-4.604-11.927-10.53h-1.82c-.74 5.926-5.802 10.53-11.927 10.53S6.235 19.46 5.493 13.533H3.42l4.767 19.7c.063.414.783 4.143 5.64 4.143a1.5 1.5 0 110 3c-6.007 0-8.239-4.303-8.6-6.65L.052 12.36c-.266-1.109.531-1.826 1.426-1.826.012 0 .023-.004.036-.004h3.982C6.237 4.604 11.298 0 17.423 0S28.608 4.604 29.35 10.53h1.814C31.906 4.604 36.966 0 43.091 0s11.186 4.604 11.927 10.53H59c.012 0 .023.004.036.004.895 0 1.692.717 1.426 1.826" fill="#d22856"/></g></svg><svg viewBox="0 0 195.067 53.833" id="logo-header-desktop" xmlns="http://www.w3.org/2000/svg"><defs><clipPath id="ka" clipPathUnits="userSpaceOnUse"><path d="M0 40.375h146.3V0H0z"/></clipPath></defs><g clip-path="url(#ka)" transform="matrix(1.33333 0 0 -1.33333 0 53.833)"><path d="M79.988 10.734c3.734 0 6.182 1.996 6.182 4.96v.061c0 3.221-2.414 4.895-6.053 4.895h-5.7v-9.918h5.57zm-8.114 10.98c0 .708.58 1.288 1.256 1.288h7.18c5.087 0 8.436-2.705 8.436-7.147v-.063c0-4.86-4.057-7.373-8.854-7.373h-5.474V1.593c0-.708-.58-1.287-1.29-1.287-.675 0-1.255.58-1.255 1.287v20.12zm21.729.161c0 .708.579 1.288 1.255 1.288.709 0 1.288-.58 1.288-1.288V1.592A1.29 1.29 0 0094.858.305c-.676 0-1.255.579-1.255 1.287zm9.141-.032c0 .676.58 1.256 1.256 1.256h.354c.58 0 .935-.29 1.288-.74l13.684-17.45v16.998c0 .676.547 1.256 1.256 1.256.676 0 1.225-.58 1.225-1.256V1.559c0-.677-.481-1.191-1.16-1.191h-.128c-.547 0-.935.322-1.318.773l-13.976 17.867V1.558c0-.676-.546-1.256-1.256-1.256-.676 0-1.223.58-1.223 1.257v20.284zm25.429.032c0 .708.58 1.288 1.257 1.288a1.29 1.29 0 001.286-1.288V9.544l12.848 13.168c.29.257.58.451.998.451.675 0 1.224-.612 1.224-1.256 0-.354-.162-.644-.42-.901l-7.984-7.92 8.564-10.561c.225-.291.354-.546.354-.935 0-.676-.577-1.288-1.285-1.288-.483 0-.807.259-1.03.58l-8.402 10.464-4.863-4.862V1.59a1.29 1.29 0 00-1.286-1.288c-.677 0-1.257.58-1.257 1.288v20.285z"/><path d="M98.498 30.5a3.623 3.623 0 00-3.623 3.624A3.625 3.625 0 0091.25 30.5a3.625 3.625 0 003.625-3.624 3.623 3.623 0 003.623 3.624" fill="#d22856"/><path d="M43.094 21.062c.246 0 .489-.014.73-.033a2.491 2.491 0 01-2.136 1.221c-.877 0-1.614.568-1.884 1.354a11.977 11.977 0 01-2.09-.816c.063-.017.123-.038.189-.038a2 2 0 002-2c0-.096-.015-.188-.028-.281 1 .382 2.084.593 3.219.593"/><path d="M60.462 12.36l-5.175 21.364c-.361 2.347-2.593 6.651-8.6 6.651a1.5 1.5 0 110-3c4.857 0 5.576-3.729 5.64-4.143l4.767-19.7H55.02c-.445 3.556-2.453 6.627-5.305 8.521a2.504 2.504 0 01-1.53-2.303c0-.088-.014-.17-.025-.256a9.036 9.036 0 003.829-5.965c.082-.488.135-.987.135-1.5 0-.512-.053-1.012-.135-1.5C51.274 6.257 47.569 3 43.094 3s-8.181 3.258-8.896 7.53a9.035 9.035 0 00-.135 1.5c0 .513.053 1.012.135 1.5.147.88.427 1.712.808 2.484a1.994 1.994 0 00-1.852 1.985.739.739 0 01-.192.488 11.95 11.95 0 01-1.795-4.957h-1.82c-.741 5.927-5.802 10.531-11.927 10.531S6.235 19.458 5.493 13.531H3.42l4.767 19.701c.063.414.783 4.143 5.639 4.143a1.5 1.5 0 110 3c-6.006 0-8.238-4.304-8.6-6.65L.053 12.358c-.266-1.109.53-1.826 1.426-1.826.012 0 .023-.004.036-.004h3.982c.079-.629.215-1.237.387-1.83a.722.722 0 01.102.352 2 2 0 002 2c.166 0 .324-.024.478-.062a8.324 8.324 0 00-.074 1.042c0 .512.053 1.011.135 1.5.715 4.27 4.42 7.531 8.896 7.531 4.475 0 8.18-3.26 8.896-7.53.082-.49.135-.989.135-1.5 0-.513-.053-1.013-.135-1.5C25.6 6.257 21.895 3 17.42 3c-2.022 0-3.883.67-5.386 1.794-.35-.302-.8-.492-1.3-.492a.75.75 0 01-.748-.748 1.98 1.98 0 00-.176-.81A11.94 11.94 0 0117.424 0c6.125 0 11.185 4.603 11.927 10.53h1.814C31.907 4.602 36.967 0 43.092 0s11.186 4.603 11.927 10.53h3.98c.013 0 .024.004.037.004.895 0 1.692.716 1.426 1.825"/><path d="M50.686 24.25a4.499 4.499 0 00-4.499 4.499 4.499 4.499 0 00-4.499-4.499 4.499 4.499 0 004.499-4.499 4.498 4.498 0 004.499 4.499m-12.782-3.501a2.748 2.748 0 00-2.75 2.749 2.748 2.748 0 00-2.748-2.749A2.747 2.747 0 0035.155 18a2.748 2.748 0 002.749 2.749M10.734 6.303a2.748 2.748 0 00-2.75 2.75c0-1.52-1.23-2.75-2.748-2.75a2.747 2.747 0 002.749-2.748 2.748 2.748 0 002.749 2.748" fill="#d22856"/></g></svg><svg viewBox="0 0 99.236 30.481" id="logo-header-mobile" xmlns="http://www.w3.org/2000/svg"><defs><clipPath id="la" clipPathUnits="userSpaceOnUse"><path d="M0 22.86h74.427V0H0z"/></clipPath></defs><g clip-path="url(#la)" transform="matrix(1.33333 0 0 -1.33333 0 30.48)"><path d="M8.114 10.432c3.734 0 6.182 1.996 6.182 4.958v.065c0 3.22-2.415 4.895-6.054 4.895H2.544v-9.918zM0 21.41c0 .71.58 1.29 1.256 1.29h7.18c5.087 0 8.436-2.705 8.436-7.148v-.063c0-4.862-4.057-7.373-8.854-7.373H2.544V1.29c0-.708-.58-1.288-1.288-1.288C.58 0 0 .58 0 1.289zm21.729.162c0 .708.579 1.288 1.254 1.288.709 0 1.288-.58 1.288-1.288V1.29c0-.708-.579-1.288-1.288-1.288-.676 0-1.255.58-1.255 1.288v20.283zm9.141-.032c0 .676.58 1.256 1.256 1.256h.354c.58 0 .934-.29 1.288-.74l13.684-17.45v16.998a1.256 1.256 0 001.255 1.256c.676 0 1.223-.58 1.223-1.256V1.256c0-.676-.482-1.191-1.159-1.191h-.129c-.546 0-.933.322-1.319.772L33.35 18.707V1.257c0-.676-.547-1.256-1.255-1.256-.677 0-1.224.58-1.224 1.256zm25.43.032c0 .708.579 1.288 1.257 1.288.707 0 1.286-.58 1.286-1.288V9.242L71.69 22.408c.289.258.58.451.998.451.676 0 1.224-.612 1.224-1.256 0-.354-.161-.644-.42-.9l-7.983-7.92L74.073 2.22c.225-.29.354-.546.354-.933C74.427.612 73.847 0 73.14 0c-.484 0-.807.258-1.031.58l-8.403 10.463-4.861-4.862V1.288A1.29 1.29 0 0057.559 0c-.678 0-1.257.58-1.257 1.288v20.284z"/></g></svg><svg viewBox="0 0 195.067 53.835" id="logo-header-tablet" xmlns="http://www.w3.org/2000/svg"><defs><clipPath id="ma" clipPathUnits="userSpaceOnUse"><path d="M0 40.376h146.3V0H0z"/></clipPath></defs><g clip-path="url(#ma)" transform="matrix(1.33333 0 0 -1.33333 0 53.835)"><path d="M79.988 10.735c3.734 0 6.182 1.996 6.182 4.96v.061c0 3.221-2.414 4.895-6.053 4.895h-5.7v-9.918h5.57zm-8.114 10.98c0 .708.58 1.288 1.256 1.288h7.18c5.087 0 8.436-2.705 8.436-7.147v-.063c0-4.86-4.057-7.373-8.854-7.373h-5.474V1.594c0-.708-.58-1.287-1.29-1.287-.675 0-1.255.58-1.255 1.287v20.12zm21.729.161c0 .708.579 1.288 1.255 1.288.709 0 1.288-.58 1.288-1.288V1.593A1.29 1.29 0 0094.858.306c-.676 0-1.255.579-1.255 1.287zm9.141-.032c0 .676.58 1.256 1.256 1.256h.354c.58 0 .935-.29 1.288-.74l13.684-17.45v16.998c0 .676.547 1.256 1.256 1.256.676 0 1.225-.58 1.225-1.256V1.56c0-.677-.481-1.191-1.16-1.191h-.128c-.547 0-.935.322-1.318.773l-13.976 17.867V1.559c0-.676-.546-1.256-1.256-1.256-.676 0-1.223.58-1.223 1.257v20.284zm25.429.032c0 .708.58 1.288 1.257 1.288a1.29 1.29 0 001.286-1.288V9.545l12.848 13.168c.29.257.58.451.998.451.675 0 1.224-.612 1.224-1.256 0-.354-.162-.644-.42-.901l-7.984-7.92 8.564-10.561c.225-.291.354-.546.354-.935 0-.676-.577-1.288-1.285-1.288-.483 0-.807.259-1.03.58l-8.402 10.464-4.863-4.862V1.591a1.29 1.29 0 00-1.286-1.288c-.677 0-1.257.58-1.257 1.288v20.285zM51.99 10.532c-.716-4.272-4.42-7.53-8.896-7.53-4.475 0-8.18 3.258-8.896 7.53a9.035 9.035 0 00-.135 1.5c0 .512.053 1.011.135 1.5.716 4.271 4.421 7.531 8.896 7.531 4.475 0 8.181-3.26 8.896-7.53.082-.49.135-.989.135-1.5 0-.513-.053-1.013-.135-1.5m-25.675 0C25.6 6.26 21.895 3 17.42 3s-8.18 3.26-8.896 7.531a9.035 9.035 0 00-.135 1.5c0 .512.053 1.011.135 1.5.715 4.271 4.421 7.531 8.896 7.531 4.475 0 8.18-3.26 8.896-7.53.082-.49.135-.989.135-1.5 0-.513-.053-1.013-.135-1.5m34.147 1.827l-5.175 21.365c-.36 2.348-2.593 6.651-8.599 6.651a1.5 1.5 0 110-3c4.856 0 5.575-3.729 5.64-4.143l4.766-19.7h-2.073c-.742 5.926-5.802 10.53-11.927 10.53s-11.186-4.604-11.927-10.53h-1.82c-.74 5.926-5.802 10.53-11.927 10.53S6.235 19.46 5.493 13.533H3.42l4.767 19.7c.063.414.783 4.143 5.64 4.143a1.5 1.5 0 110 3c-6.007 0-8.239-4.303-8.6-6.65L.052 12.36c-.266-1.109.531-1.826 1.426-1.826.012 0 .023-.004.036-.004h3.982C6.237 4.604 11.298 0 17.423 0S28.608 4.604 29.35 10.53h1.814C31.906 4.604 36.966 0 43.091 0s11.186 4.604 11.927 10.53H59c.012 0 .023.004.036.004.895 0 1.692.717 1.426 1.826"/></g></svg><svg viewBox="0 0 195.067 53.833" id="logotype-pink-desktop" xmlns="http://www.w3.org/2000/svg"><defs><clipPath id="na" clipPathUnits="userSpaceOnUse"><path d="M0 40.375h146.3V0H0z"/></clipPath></defs><g clip-path="url(#na)" transform="matrix(1.33333 0 0 -1.33333 0 53.833)" fill="#d22856"><path d="M79.988 10.734c3.734 0 6.182 1.996 6.182 4.96v.061c0 3.221-2.414 4.895-6.053 4.895h-5.7v-9.918h5.57zm-8.114 10.98c0 .708.58 1.288 1.256 1.288h7.18c5.087 0 8.436-2.705 8.436-7.147v-.063c0-4.86-4.057-7.373-8.854-7.373h-5.474V1.593c0-.708-.58-1.287-1.29-1.287-.675 0-1.255.58-1.255 1.287v20.12zm21.729.161c0 .708.579 1.288 1.255 1.288.709 0 1.288-.58 1.288-1.288V1.592A1.29 1.29 0 0094.858.305c-.676 0-1.255.579-1.255 1.287zm9.141-.032c0 .676.58 1.256 1.256 1.256h.354c.58 0 .935-.29 1.288-.74l13.684-17.45v16.998c0 .676.547 1.256 1.256 1.256.676 0 1.225-.58 1.225-1.256V1.559c0-.677-.481-1.191-1.16-1.191h-.128c-.547 0-.935.322-1.318.773l-13.976 17.867V1.558c0-.676-.546-1.256-1.256-1.256-.676 0-1.223.58-1.223 1.257v20.284zm25.429.032c0 .708.58 1.288 1.257 1.288a1.29 1.29 0 001.286-1.288V9.544l12.848 13.168c.29.257.58.451.998.451.675 0 1.224-.612 1.224-1.256 0-.354-.162-.644-.42-.901l-7.984-7.92 8.564-10.561c.225-.291.354-.546.354-.935 0-.676-.577-1.288-1.285-1.288-.483 0-.807.259-1.03.58l-8.402 10.464-4.863-4.862V1.59a1.29 1.29 0 00-1.286-1.288c-.677 0-1.257.58-1.257 1.288v20.285zM98.498 30.5a3.623 3.623 0 00-3.623 3.624A3.625 3.625 0 0091.25 30.5a3.625 3.625 0 003.625-3.624 3.623 3.623 0 003.623 3.624m-55.404-9.438c.246 0 .489-.014.73-.033a2.491 2.491 0 01-2.136 1.221c-.877 0-1.614.568-1.884 1.354a11.977 11.977 0 01-2.09-.816c.063-.017.123-.038.189-.038a2 2 0 002-2c0-.096-.015-.188-.028-.281 1 .382 2.084.593 3.219.593"/><path d="M60.462 12.36l-5.175 21.364c-.361 2.347-2.593 6.651-8.6 6.651a1.5 1.5 0 110-3c4.857 0 5.576-3.729 5.64-4.143l4.767-19.7H55.02c-.445 3.556-2.453 6.627-5.305 8.521a2.504 2.504 0 01-1.53-2.303c0-.088-.014-.17-.025-.256a9.036 9.036 0 003.829-5.965c.082-.488.135-.987.135-1.5 0-.512-.053-1.012-.135-1.5C51.274 6.257 47.569 3 43.094 3s-8.181 3.258-8.896 7.53a9.035 9.035 0 00-.135 1.5c0 .513.053 1.012.135 1.5.147.88.427 1.712.808 2.484a1.994 1.994 0 00-1.852 1.985.739.739 0 01-.192.488 11.95 11.95 0 01-1.795-4.957h-1.82c-.741 5.927-5.802 10.531-11.927 10.531S6.235 19.458 5.493 13.531H3.42l4.767 19.701c.063.414.783 4.143 5.639 4.143a1.5 1.5 0 110 3c-6.006 0-8.238-4.304-8.6-6.65L.053 12.358c-.266-1.109.53-1.826 1.426-1.826.012 0 .023-.004.036-.004h3.982c.079-.629.215-1.237.387-1.83a.722.722 0 01.102.352 2 2 0 002 2c.166 0 .324-.024.478-.062a8.324 8.324 0 00-.074 1.042c0 .512.053 1.011.135 1.5.715 4.27 4.42 7.531 8.896 7.531 4.475 0 8.18-3.26 8.896-7.53.082-.49.135-.989.135-1.5 0-.513-.053-1.013-.135-1.5C25.6 6.257 21.895 3 17.42 3c-2.022 0-3.883.67-5.386 1.794-.35-.302-.8-.492-1.3-.492a.75.75 0 01-.748-.748 1.98 1.98 0 00-.176-.81A11.94 11.94 0 0117.424 0c6.125 0 11.185 4.603 11.927 10.53h1.814C31.907 4.602 36.967 0 43.092 0s11.186 4.603 11.927 10.53h3.98c.013 0 .024.004.037.004.895 0 1.692.716 1.426 1.825"/><path d="M50.686 24.25a4.499 4.499 0 00-4.499 4.499 4.499 4.499 0 00-4.499-4.499 4.499 4.499 0 004.499-4.499 4.498 4.498 0 004.499 4.499m-12.782-3.501a2.748 2.748 0 00-2.75 2.749 2.748 2.748 0 00-2.748-2.749A2.747 2.747 0 0035.155 18a2.748 2.748 0 002.749 2.749M10.734 6.303a2.748 2.748 0 00-2.75 2.75c0-1.52-1.23-2.75-2.748-2.75a2.747 2.747 0 002.749-2.748 2.748 2.748 0 002.749 2.748"/></g></svg><svg viewBox="0 0 58.563 55.99" id="microsoft-icon" xmlns="http://www.w3.org/2000/svg"><path d="M0 26.604h27.832V0H0z" fill="#f05423"/><path d="M58.563 26.604H30.732V0h27.83z" fill="#84c441"/><path d="M0 55.99h27.83V29.387H0z" fill="#2dabe2"/><path d="M30.732 55.99h27.83V29.387h-27.83z" fill="#f9bc15"/></svg><svg viewBox="0 0 104.896 85.052" id="quotes" xmlns="http://www.w3.org/2000/svg"><defs><clipPath id="pa" clipPathUnits="userSpaceOnUse"><path d="M0 63.789h78.672V0H0z"/></clipPath></defs><g clip-path="url(#pa)" transform="matrix(1.33333 0 0 -1.33333 0 85.052)"><path d="M34.967 56.726l-4.254 7.063C28.272 62.294 0 51.582 0 24.172 0 16.942.336 0 18.9 0c11.187 0 13.94 10.28 13.94 13.584 0 21.977-21.382 14.178-21.382 14.178 0 18.07 19.805 26.843 23.509 28.964m43.705 0l-4.254 7.063c-2.44-1.495-30.713-12.207-30.713-39.617 0-7.23.337-24.172 18.9-24.172 11.187 0 13.939 10.28 13.939 13.584 0 21.977-21.381 14.178-21.381 14.178.002 18.07 19.806 26.843 23.509 28.964" fill="#efefef"/></g></svg><svg viewBox="0 0 11.563 25.258" id="social-facebook" xmlns="http://www.w3.org/2000/svg"><defs><clipPath id="qa" clipPathUnits="userSpaceOnUse"><path d="M0 18.943h8.672V0H0z"/></clipPath></defs><g clip-path="url(#qa)" transform="matrix(1.33333 0 0 -1.33333 0 25.258)"><path d="M6.275 15.587h2.397v3.356H5.796c-3.14-.18-4.256-2.386-3.848-6.115H0V9.312h1.958V0h3.838v9.312h2.856v3.516H5.786c-.021 1.046-.035 2.406.489 2.759" fill="#d22856"/></g></svg><svg viewBox="0 0 23.333 19.549" id="social-twitter" xmlns="http://www.w3.org/2000/svg"><defs><clipPath id="ra" clipPathUnits="userSpaceOnUse"><path d="M0 14.662h17.5V0H0z"/></clipPath></defs><g clip-path="url(#ra)" transform="matrix(1.33333 0 0 -1.33333 0 19.55)"><path d="M11.283 14.51c1.736.485 3.074-.263 3.685-1.151.694.226 1.372.47 2.072.69-.004-.84-.538-1.477-.883-1.726.704-.166 1.343.48 1.343.48-.175-.976-1.035-1.746-1.612-1.977C15.65 4.234 12.618-.13 5.508.003h-.46C4.624.003.757.452 0 1.846c2.341-.192 4.011.412 4.835 1.149-.989.293-2.76.465-3.07 2.88.362-.103.583-.221 1.228-.115C1.757 6.596.385 7.297.461 9.445c.294-.32 1.1-.523 1.381-.461-.725.235-2.03 3.28-.92 4.836 1.872-1.811 3.847-3.521 7.368-3.685.216 2.24 1.171 3.74 2.993 4.375" fill="#d22856"/></g></svg><svg viewBox="0 0 19.518 18.613" id="social-youtube" xmlns="http://www.w3.org/2000/svg"><defs><clipPath id="sa" clipPathUnits="userSpaceOnUse"><path d="M0 13.96h14.639V0H0z"/></clipPath></defs><g clip-path="url(#sa)" transform="matrix(1.33333 0 0 -1.33333 0 18.613)"><path d="M1.775.18C.798-.296 0 .204 0 1.29v11.38c0 1.088.798 1.585 1.775 1.109l12.133-5.932c.974-.478.974-1.258 0-1.736z" fill="#d22856"/></g></svg><svg viewBox="0 0 35.669 35.669" id="tarrif-no" xmlns="http://www.w3.org/2000/svg"><defs><clipPath id="ta" clipPathUnits="userSpaceOnUse"><path d="M0 26.751h26.751V0H0z"/></clipPath></defs><g clip-path="url(#ta)" transform="matrix(1.33333 0 0 -1.33333 0 35.669)"><path d="M15.498 13.375l10.814 10.814a1.5 1.5 0 11-2.121 2.121L13.377 15.496 2.563 26.312a1.5 1.5 0 11-2.121-2.121l10.814-10.815L.44 2.561A1.5 1.5 0 112.562.439l10.815 10.815L24.19.439A1.495 1.495 0 0125.25 0a1.5 1.5 0 011.06 2.561z" fill="#f25b26"/></g></svg><svg viewBox="0 0 40.499 28.917" id="tarrif-yes" xmlns="http://www.w3.org/2000/svg"><defs><clipPath id="ua" clipPathUnits="userSpaceOnUse"><path d="M0 21.688h30.375V0H0z"/></clipPath></defs><g clip-path="url(#ua)" transform="matrix(1.33333 0 0 -1.33333 0 28.917)"><path d="M29.935 21.248a1.5 1.5 0 01-2.12 0L10.186 3.621 2.56 11.248A1.5 1.5 0 11.44 9.127L9.126.438A1.496 1.496 0 0110.188 0c.385 0 .768.145 1.061.438l18.686 18.688a1.5 1.5 0 010 2.122" fill="#3dc644"/></g></svg></svg>