<?xml version="1.0" encoding="UTF-8" standalone="no"?>
<svg
   xmlns:dc="http://purl.org/dc/elements/1.1/"
   xmlns:cc="http://creativecommons.org/ns#"
   xmlns:rdf="http://www.w3.org/1999/02/22-rdf-syntax-ns#"
   xmlns:svg="http://www.w3.org/2000/svg"
   xmlns="http://www.w3.org/2000/svg"
   viewBox="0 0 56.112 62.723331"
   height="43"
   width="47"
   xml:space="preserve"
   id="svg2"
   version="1.1"><metadata
     id="metadata8"><rdf:RDF><cc:Work
         rdf:about=""><dc:format>image/svg+xml</dc:format><dc:type
           rdf:resource="http://purl.org/dc/dcmitype/StillImage" /></cc:Work></rdf:RDF></metadata><defs
     id="defs6"><clipPath
       id="clipPath18"
       clipPathUnits="userSpaceOnUse"><path
         id="path16"
         d="M 0,47.042 H 42.084 V 0 H 0 Z" /></clipPath></defs><g
     transform="matrix(1.3333333,0,0,-1.3333333,0,62.723333)"
     id="g10"><g
       id="g12"><g
         clip-path="url(#clipPath18)"
         id="g14"><g
           transform="translate(34.1436,33.0342)"
           id="g20"><path
             id="path22"
             style="fill:#a4c639;fill-opacity:1;fill-rule:nonzero;stroke:none"
             d="m 0,0 h -26.199 c -0.009,-0.11 -0.018,-0.22 -0.018,-0.333 v -18.755 c 0,-1.926 1.457,-3.49 3.317,-3.627 v -7.434 c 0,-1.594 1.291,-2.885 2.884,-2.885 1.594,0 2.886,1.291 2.886,2.885 v 7.42 h 8.058 v -7.42 c 0,-1.594 1.291,-2.885 2.884,-2.885 1.595,0 2.886,1.291 2.886,2.885 v 7.434 c 1.859,0.137 3.316,1.701 3.316,3.627 V -0.333 C 0.014,-0.22 0.01,-0.11 0,0" /></g><g
           transform="translate(2.8857,31.3638)"
           id="g24"><path
             id="path26"
             style="fill:#a4c639;fill-opacity:1;fill-rule:nonzero;stroke:none"
             d="m 0,0 v 0 c 1.593,0 2.886,-1.292 2.886,-2.885 v -12.378 c 0,-1.595 -1.292,-2.886 -2.886,-2.886 -1.594,0 -2.886,1.291 -2.886,2.886 V -2.885 C -2.886,-1.291 -1.594,0 0,0" /></g><g
           transform="translate(39.1982,31.3638)"
           id="g28"><path
             id="path30"
             style="fill:#a4c639;fill-opacity:1;fill-rule:nonzero;stroke:none"
             d="m 0,0 v 0 c 1.595,0 2.886,-1.292 2.886,-2.885 v -12.378 c 0,-1.595 -1.291,-2.886 -2.886,-2.886 -1.594,0 -2.885,1.291 -2.885,2.886 V -2.885 C -2.885,-1.291 -1.594,0 0,0" /></g><g
           transform="translate(14.1802,40.2388)"
           id="g32"><path
             id="path34"
             style="fill:#a4c639;fill-opacity:1;fill-rule:nonzero;stroke:none"
             d="M 0,0 C -0.001,0.805 0.665,1.46 1.489,1.462 2.313,1.464 2.983,0.814 2.986,0.008 V 0 C 2.988,-0.805 2.322,-1.46 1.498,-1.462 0.673,-1.464 0.003,-0.813 0,-0.008 Z m 11.143,0 c -0.002,0.805 0.664,1.46 1.488,1.462 0.827,0.002 1.494,-0.648 1.498,-1.454 V 0 c 0.002,-0.805 -0.664,-1.46 -1.49,-1.462 -0.823,-0.002 -1.493,0.649 -1.496,1.454 z M -6.15,-5.163 h 26.025 c -0.039,2.783 -1.234,5.322 -3.186,7.275 l 2.446,4.235 c 0.082,0.146 0.032,0.331 -0.112,0.415 -0.146,0.084 -0.331,0.034 -0.415,-0.111 L 16.236,2.544 c -2.052,1.853 -6.249,3.4 -9.374,3.4 -3.016,0 -7.322,-1.547 -9.374,-3.4 L -4.884,6.652 C -4.967,6.797 -5.153,6.846 -5.299,6.763 -5.444,6.679 -5.494,6.493 -5.41,6.348 L -2.965,2.113 C -4.915,0.159 -6.112,-2.38 -6.15,-5.163" /></g></g></g></g></svg>
