<svg xmlns="http://www.w3.org/2000/svg" width="47" height="43" viewBox="0 0 56.112 62.723">
  <defs/>
  <defs>
    <clipPath id="a" clipPathUnits="userSpaceOnUse">
      <path d="M0 47.042h42.084V0H0z"/>
    </clipPath>
  </defs>
  <g clip-path="url(#a)" transform="matrix(1.33333 0 0 -1.33333 0 62.723)">
    <path fill="#a4c639" d="M34.144 33.034h-26.2c-.008-.11-.017-.22-.017-.333V13.946c0-1.926 1.457-3.49 3.317-3.627V2.885a2.884 2.884 0 115.77 0v7.42h8.058v-7.42a2.884 2.884 0 115.77 0v7.434c1.859.137 3.316 1.701 3.316 3.627v18.755c0 .113-.004.223-.014.333M2.886 31.364a2.886 2.886 0 002.886-2.885V16.1A2.885 2.885 0 100 16.1v12.378a2.885 2.885 0 002.886 2.885M39.198 31.364a2.885 2.885 0 002.886-2.885V16.1a2.885 2.885 0 10-5.77 0v12.378a2.884 2.884 0 002.884 2.885M14.18 40.239c0 .805.665 1.46 1.49 1.462.823.002 1.493-.648 1.496-1.454v-.008c.002-.805-.664-1.46-1.488-1.462-.825-.002-1.495.649-1.498 1.454zm11.143 0c-.002.805.664 1.46 1.488 1.462.827.002 1.494-.648 1.498-1.454v-.008c.002-.805-.664-1.46-1.49-1.462-.823-.002-1.493.649-1.496 1.454zM8.03 35.076h26.025c-.039 2.783-1.234 5.322-3.186 7.275l2.446 4.235a.304.304 0 01-.527.304l-2.372-4.107c-2.052 1.853-6.249 3.4-9.374 3.4-3.016 0-7.322-1.547-9.374-3.4L9.296 46.89a.304.304 0 01-.526-.304l2.445-4.235c-1.95-1.954-3.147-4.493-3.185-7.276"/>
  </g>
</svg>
