<svg xmlns="http://www.w3.org/2000/svg" width="56" height="47" viewBox="0 0 61.613 75.669">
  <defs/>
  <defs>
    <clipPath id="a" clipPathUnits="userSpaceOnUse">
      <path d="M0 56.751h46.21V0H0z"/>
    </clipPath>
  </defs>
  <g clip-path="url(#a)" transform="matrix(1.33333 0 0 -1.33333 0 75.669)">
    <path fill="#fff" d="M31.452 47.69c1.982 2.4 3.316 5.739 2.952 9.062-2.856-.116-6.31-1.905-8.36-4.303-1.836-2.122-3.445-5.52-3.01-8.777 3.184-.246 6.436 1.619 8.418 4.018m7.141-21.088c.08-8.59 7.535-11.447 7.617-11.482-.063-.203-1.19-4.075-3.928-8.073C39.917 3.59 37.462.146 33.595.074c-3.799-.07-5.022 2.253-9.366 2.253-4.344 0-5.702-2.182-9.298-2.323-3.732-.142-6.576 3.739-8.96 7.184-4.875 7.046-8.599 19.91-3.598 28.593 2.484 4.313 6.925 7.043 11.744 7.114 3.666.068 7.126-2.467 9.365-2.467 2.241 0 6.445 3.05 10.866 2.602 1.85-.078 7.043-.748 10.38-5.63-.27-.167-6.198-3.62-6.135-10.798"/>
  </g>
</svg>
