<?xml version="1.0" encoding="UTF-8" standalone="no"?>
<svg
   xmlns:dc="http://purl.org/dc/elements/1.1/"
   xmlns:cc="http://creativecommons.org/ns#"
   xmlns:rdf="http://www.w3.org/1999/02/22-rdf-syntax-ns#"
   xmlns:svg="http://www.w3.org/2000/svg"
   xmlns="http://www.w3.org/2000/svg"
   viewBox="0 0 61.613335 75.668671"
   height="47"
   width="56"
   xml:space="preserve"
   id="svg2"
   version="1.1"><metadata
     id="metadata8"><rdf:RDF><cc:Work
         rdf:about=""><dc:format>image/svg+xml</dc:format><dc:type
           rdf:resource="http://purl.org/dc/dcmitype/StillImage" /></cc:Work></rdf:RDF></metadata><defs
     id="defs6"><clipPath
       id="clipPath18"
       clipPathUnits="userSpaceOnUse"><path
         id="path16"
         d="M 0,56.751 H 46.21 V 0 H 0 Z" /></clipPath></defs><g
     transform="matrix(1.3333333,0,0,-1.3333333,0,75.668667)"
     id="g10"><g
       id="g12"><g
         clip-path="url(#clipPath18)"
         id="g14"><g
           transform="translate(31.4521,47.6895)"
           id="g20"><path
             id="path22"
             style="fill:#ffffff;fill-opacity:1;fill-rule:nonzero;stroke:none"
             d="M 0,0 C 1.982,2.4 3.316,5.739 2.952,9.062 0.096,8.947 -3.359,7.158 -5.408,4.76 -7.244,2.637 -8.853,-0.761 -8.418,-4.018 -5.234,-4.264 -1.982,-2.399 0,0 m 7.141,-21.088 c 0.08,-8.59 7.535,-11.447 7.617,-11.482 -0.063,-0.203 -1.191,-4.075 -3.928,-8.073 -2.365,-3.457 -4.82,-6.901 -8.687,-6.973 -3.799,-0.07 -5.022,2.253 -9.366,2.253 -4.344,0 -5.702,-2.182 -9.298,-2.323 -3.732,-0.142 -6.576,3.739 -8.96,7.184 -4.875,7.046 -8.599,19.91 -3.598,28.593 2.484,4.313 6.925,7.043 11.744,7.114 3.666,0.069 7.126,-2.466 9.365,-2.466 2.241,0 6.445,3.049 10.866,2.601 1.85,-0.077 7.043,-0.747 10.379,-5.629 -0.269,-0.168 -6.197,-3.62 -6.134,-10.799" /></g></g></g></g></svg>
