<svg xmlns="http://www.w3.org/2000/svg" width="32" height="32" viewBox="0 0 42.56 42.56">
  <defs/>
  <defs>
    <clipPath id="a" clipPathUnits="userSpaceOnUse">
      <path d="M0 31.92h31.92V0H0z"/>
    </clipPath>
  </defs>
  <g clip-path="url(#a)" transform="matrix(1.33333 0 0 -1.33333 0 42.56)">
    <path d="M15.96 31.92C7.146 31.92 0 24.775 0 15.96 0 7.147 7.146 0 15.96 0s15.96 7.147 15.96 15.96c0 8.815-7.146 15.96-15.96 15.96m0-4c6.595 0 11.96-5.365 11.96-11.96C27.92 9.365 22.555 4 15.96 4 9.365 4 4 9.365 4 15.96c0 6.595 5.365 11.96 11.96 11.96"/>
    <path d="M15.96 7.629a8.519 8.519 0 018.52 8.52 8.518 8.518 0 01-8.52 8.518"/>
  </g>
</svg>
