<?xml version="1.0" encoding="UTF-8" standalone="no"?>
<svg
   xmlns:dc="http://purl.org/dc/elements/1.1/"
   xmlns:cc="http://creativecommons.org/ns#"
   xmlns:rdf="http://www.w3.org/1999/02/22-rdf-syntax-ns#"
   xmlns:svg="http://www.w3.org/2000/svg"
   xmlns="http://www.w3.org/2000/svg"
   viewBox="0 0 42.559868 42.559868"
   height="42.559868"
   width="42.559868"
   xml:space="preserve"
   id="svg2"
   version="1.1"><metadata
     id="metadata8"><rdf:RDF><cc:Work
         rdf:about=""><dc:format>image/svg+xml</dc:format><dc:type
           rdf:resource="http://purl.org/dc/dcmitype/StillImage" /></cc:Work></rdf:RDF></metadata><defs
     id="defs6"><clipPath
       id="clipPath18"
       clipPathUnits="userSpaceOnUse"><path
         id="path16"
         d="M 0,31.92 H 31.92 V 0 H 0 Z" /></clipPath></defs><g
     transform="matrix(1.3333333,0,0,-1.3333333,0,42.559867)"
     id="g10"><g
       id="g12"><g
         clip-path="url(#clipPath18)"
         id="g14"><g
           transform="translate(15.96,31.9199)"
           id="g20"><path
             id="path22"
             style="fill-opacity:1;fill-rule:nonzero;stroke:none"
             d="m 0,0 c -8.814,0 -15.96,-7.145 -15.96,-15.96 0,-8.813 7.146,-15.96 15.96,-15.96 8.814,0 15.96,7.147 15.96,15.96 C 15.96,-7.145 8.814,0 0,0 m 0,-4 c 6.595,0 11.96,-5.365 11.96,-11.96 0,-6.595 -5.365,-11.96 -11.96,-11.96 -6.595,0 -11.96,5.365 -11.96,11.96 C -11.96,-9.365 -6.595,-4 0,-4" /></g><g
           transform="translate(15.96,7.6289)"
           id="g24"><path
             id="path26"
             style="fill-opacity:1;fill-rule:nonzero;stroke:none"
             d="m 0,0 c 4.706,0 8.52,3.813 8.52,8.52 0,4.705 -3.814,8.518 -8.52,8.518" /></g></g></g></g></svg>
