<svg xmlns="http://www.w3.org/2000/svg" width="24" height="23" viewBox="0 0 31.822 31.822">
  <defs/>
  <defs>
    <clipPath id="a" clipPathUnits="userSpaceOnUse">
      <path d="M0 23.867h23.867V0H0z"/>
    </clipPath>
  </defs>
  <g clip-path="url(#a)" transform="matrix(1.33333 0 0 -1.33333 0 31.822)">
    <path d="M15.087 11.934l8.56 8.559a.75.75 0 010 1.06l-2.093 2.094a.75.75 0 01-1.06 0l-8.56-8.56-8.56 8.56a.771.771 0 01-1.062 0L.22 21.554a.748.748 0 010-1.061l8.56-8.56L.22 3.376a.748.748 0 010-1.061L2.313.22a.748.748 0 011.06 0l8.561 8.56 8.56-8.56a.75.75 0 011.06 0l2.093 2.094a.75.75 0 010 1.06z"/>
  </g>
</svg>
