<?xml version="1.0" encoding="UTF-8" standalone="no"?>
<svg
   xmlns:dc="http://purl.org/dc/elements/1.1/"
   xmlns:cc="http://creativecommons.org/ns#"
   xmlns:rdf="http://www.w3.org/1999/02/22-rdf-syntax-ns#"
   xmlns:svg="http://www.w3.org/2000/svg"
   xmlns="http://www.w3.org/2000/svg"
   viewBox="0 0 31.822268 31.822268"
   height="31.822268"
   width="31.822268"
   xml:space="preserve"
   id="svg2"
   version="1.1"><metadata
     id="metadata8"><rdf:RDF><cc:Work
         rdf:about=""><dc:format>image/svg+xml</dc:format><dc:type
           rdf:resource="http://purl.org/dc/dcmitype/StillImage" /></cc:Work></rdf:RDF></metadata><defs
     id="defs6"><clipPath
       id="clipPath18"
       clipPathUnits="userSpaceOnUse"><path
         id="path16"
         d="M 0,23.867 H 23.867 V 0 H 0 Z" /></clipPath></defs><g
     transform="matrix(1.3333333,0,0,-1.3333333,0,31.822267)"
     id="g10"><g
       id="g12"><g
         clip-path="url(#clipPath18)"
         id="g14"><g
           transform="translate(15.0874,11.9336)"
           id="g20"><path
             id="path22"
             style="fill:#d22856;fill-opacity:1;fill-rule:nonzero;stroke:none"
             d="m 0,0 8.56,8.559 c 0.293,0.293 0.293,0.768 0,1.061 l -2.093,2.093 c -0.141,0.141 -0.331,0.22 -0.531,0.22 -0.2,0 -0.391,-0.079 -0.53,-0.22 l -8.56,-8.56 -8.56,8.56 c -0.283,0.282 -0.781,0.282 -1.061,0 L -14.867,9.62 c -0.294,-0.293 -0.294,-0.768 0,-1.061 L -6.308,0 -14.867,-8.559 c -0.294,-0.293 -0.294,-0.767 0,-1.061 l 2.093,-2.094 c 0.141,-0.141 0.331,-0.22 0.529,-0.22 0.2,0 0.391,0.079 0.531,0.22 l 8.561,8.56 8.559,-8.56 c 0.141,-0.141 0.332,-0.22 0.531,-0.22 0.199,0 0.389,0.079 0.53,0.22 L 8.56,-9.62 c 0.293,0.294 0.293,0.768 0,1.061 z" /></g></g></g></g></svg>
