<?xml version="1.0" encoding="UTF-8" standalone="no"?>
<svg
   xmlns:dc="http://purl.org/dc/elements/1.1/"
   xmlns:cc="http://creativecommons.org/ns#"
   xmlns:rdf="http://www.w3.org/1999/02/22-rdf-syntax-ns#"
   xmlns:svg="http://www.w3.org/2000/svg"
   xmlns="http://www.w3.org/2000/svg"
   viewBox="0 0 23.9844 18.620399"
   height="18.620399"
   width="23.9844"
   xml:space="preserve"
   id="svg2"
   version="1.1"><metadata
     id="metadata8"><rdf:RDF><cc:Work
         rdf:about=""><dc:format>image/svg+xml</dc:format><dc:type
           rdf:resource="http://purl.org/dc/dcmitype/StillImage" /></cc:Work></rdf:RDF></metadata><defs
     id="defs6"><clipPath
       id="clipPath18"
       clipPathUnits="userSpaceOnUse"><path
         id="path16"
         d="M 0,13.965 H 17.988 V 0 H 0 Z" /></clipPath></defs><g
     transform="matrix(1.3333333,0,0,-1.3333333,0,18.6204)"
     id="g10"><g
       id="g12"><g
         clip-path="url(#clipPath18)"
         id="g14"><g
           transform="translate(14.9141,12.1514)"
           id="g20"><path
             id="path22"
             style="fill:#d22856;fill-opacity:1;fill-rule:nonzero;stroke:none"
             d="m 0,0 c 1.197,0.998 0.902,1.814 -0.657,1.814 h -10.526 c -1.56,0 -1.854,-0.816 -0.657,-1.814 l 3.742,-3.118 c 1.198,-0.998 3.159,-0.998 4.355,0 z" /></g><g
           transform="translate(11.9131,6.9214)"
           id="g24"><path
             id="path26"
             style="fill:#d22856;fill-opacity:1;fill-rule:nonzero;stroke:none"
             d="m 0,0 c -1.198,-0.998 -2.195,-1.826 -2.218,-1.835 l -0.02,-0.014 C -2.312,-1.906 -2.39,-1.951 -2.473,-1.985 -2.506,-2 -2.539,-2.019 -2.573,-2.033 c -0.11,-0.034 -0.223,-0.058 -0.335,-0.058 -0.003,0 -0.007,-0.002 -0.01,-0.002 H -2.919 -2.92 c -0.003,0 -0.007,0.002 -0.01,0.002 -0.113,0.002 -0.224,0.024 -0.335,0.058 -0.034,0.014 -0.068,0.033 -0.1,0.048 -0.083,0.034 -0.159,0.079 -0.235,0.136 l -0.02,0.014 C -3.642,-1.824 -4.64,-0.998 -5.838,0 l -3.896,3.248 c -1.2,0.998 -2.179,0.539 -2.179,-1.02 v -6.315 c 0,-1.56 1.275,-2.834 2.835,-2.834 H 3.24 c 1.56,0 2.835,1.274 2.835,2.834 v 6.315 c 0,1.559 -0.979,2.018 -2.178,1.02 z" /></g></g></g></g></svg>
