<svg xmlns="http://www.w3.org/2000/svg" width="23.984" height="18.62">
  <defs/>
  <defs>
    <clipPath id="a" clipPathUnits="userSpaceOnUse">
      <path d="M0 13.965h17.988V0H0z"/>
    </clipPath>
  </defs>
  <g clip-path="url(#a)" transform="matrix(1.33333 0 0 -1.33333 0 18.62)">
    <path fill="#d22856" d="M14.914 12.151c1.197.998.902 1.814-.657 1.814H3.731c-1.56 0-1.854-.816-.657-1.814l3.742-3.118c1.198-.998 3.16-.998 4.355 0z"/>
    <path fill="#d22856" d="M11.913 6.921a178.208 178.208 0 00-2.218-1.835l-.02-.014a1.011 1.011 0 00-.235-.136c-.033-.015-.066-.034-.1-.048a1.145 1.145 0 00-.335-.058l-.01-.002h-.002l-.01.002a1.215 1.215 0 00-.335.058c-.034.014-.068.033-.1.048a1.054 1.054 0 00-.235.136l-.02.014c-.022.011-1.02.837-2.218 1.835L2.18 10.17C.98 11.167 0 10.71 0 9.15V2.834A2.842 2.842 0 012.835 0h12.318a2.842 2.842 0 012.835 2.834V9.15c0 1.56-.979 2.018-2.178 1.02z"/>
  </g>
</svg>
