<svg xmlns="http://www.w3.org/2000/svg" width="43" height="48" viewBox="0 0 64 64">
  <defs/>
  <defs>
    <clipPath id="a" clipPathUnits="userSpaceOnUse">
      <path d="M0 48h48V0H0z"/>
    </clipPath>
  </defs>
  <g clip-path="url(#a)" transform="matrix(1.33333 0 0 -1.33333 0 64)">
    <path d="M38 25s-4-4.33-4-7c0-2.21 1.79-4 4-4s4 1.79 4 4c0 2.67-4 7-4 7m-27.59 3L20 37.58 29.59 28zm22.71 2.12L15.24 48l-2.83-2.83 4.76-4.76L6.88 30.12a3 3 0 010-4.24l11-11c.58-.59 1.35-.88 2.12-.88s1.54.29 2.12.88l11 11a3 3 0 010 4.24M48 5H0v3h48z"/>
  </g>
</svg>
