<?xml version="1.0" encoding="UTF-8" standalone="no"?>
<svg
   xmlns:dc="http://purl.org/dc/elements/1.1/"
   xmlns:cc="http://creativecommons.org/ns#"
   xmlns:rdf="http://www.w3.org/1999/02/22-rdf-syntax-ns#"
   xmlns:svg="http://www.w3.org/2000/svg"
   xmlns="http://www.w3.org/2000/svg"
   viewBox="0 0 64 64"
   height="48"
   width="43"
   xml:space="preserve"
   id="svg2"
   version="1.1"><metadata
     id="metadata8"><rdf:RDF><cc:Work
         rdf:about=""><dc:format>image/svg+xml</dc:format><dc:type
           rdf:resource="http://purl.org/dc/dcmitype/StillImage" /></cc:Work></rdf:RDF></metadata><defs
     id="defs6"><clipPath
       id="clipPath18"
       clipPathUnits="userSpaceOnUse"><path
         id="path16"
         d="M 0,48 H 48 V 0 H 0 Z" /></clipPath></defs><g
     transform="matrix(1.3333333,0,0,-1.3333333,0,64)"
     id="g10"><g
       id="g12"><g
         clip-path="url(#clipPath18)"
         id="g14"><g
           transform="translate(38,25)"
           id="g20"><path
             id="path22"
             style="fill:#000000;fill-opacity:1;fill-rule:nonzero;stroke:none"
             d="m 0,0 c 0,0 -4,-4.33 -4,-7 0,-2.21 1.79,-4 4,-4 2.21,0 4,1.79 4,4 0,2.67 -4,7 -4,7 M -27.59,3 -18,12.58 -8.41,3 Z M -4.88,5.12 -22.76,23 -25.59,20.17 -20.83,15.41 -31.12,5.12 c -1.17,-1.17 -1.17,-3.07 0,-4.24 l 11,-11 c 0.58,-0.59 1.35,-0.88 2.12,-0.88 0.77,0 1.54,0.29 2.12,0.88 l 11,11 c 1.17,1.17 1.17,3.07 0,4.24" /></g><path
           id="path24"
           style="fill:#000000;fill-opacity:1;fill-rule:nonzero;stroke:none"
           d="M 48,5 H 0 v 3 h 48 z" /></g></g></g></svg>
