<svg xmlns="http://www.w3.org/2000/svg" width="16.727" height="15.987">
  <defs/>
  <defs>
    <clipPath id="a" clipPathUnits="userSpaceOnUse">
      <path d="M0 11.99h12.545V0H0z"/>
    </clipPath>
  </defs>
  <g clip-path="url(#a)" transform="matrix(1.33333 0 0 -1.33333 0 15.987)">
    <path fill="#d22856" d="M1.99 6.706c.208-.255 2.471-2.839 4.243-4.858l4.323 4.944c.34.37.52.86.52 1.4a2.333 2.333 0 01-2.33 2.33c-.729 0-1.42-.343-1.9-.943a.757.757 0 00-.585-.275.729.729 0 00-.576.294 2.332 2.332 0 01-1.886.924 2.332 2.332 0 01-2.33-2.33c0-.678.275-1.172.506-1.467.005-.006.011-.012.015-.019M6.235 0a.737.737 0 00-.552.25C1.886 4.572 1.04 5.546.825 5.82l-.004-.003a3.866 3.866 0 00-.82 2.373 3.803 3.803 0 003.798 3.8c.933 0 1.803-.32 2.484-.899.696.578 1.56.898 2.463.898a3.803 3.803 0 003.8-3.799c0-.909-.32-1.754-.898-2.38L6.788.25A.736.736 0 006.236 0z"/>
  </g>
</svg>
