<?xml version="1.0" encoding="UTF-8" standalone="no"?>
<svg
   xmlns:dc="http://purl.org/dc/elements/1.1/"
   xmlns:cc="http://creativecommons.org/ns#"
   xmlns:rdf="http://www.w3.org/1999/02/22-rdf-syntax-ns#"
   xmlns:svg="http://www.w3.org/2000/svg"
   xmlns="http://www.w3.org/2000/svg"
   viewBox="0 0 16.726534 15.986933"
   height="15.986933"
   width="16.726534"
   xml:space="preserve"
   id="svg2"
   version="1.1"><metadata
     id="metadata8"><rdf:RDF><cc:Work
         rdf:about=""><dc:format>image/svg+xml</dc:format><dc:type
           rdf:resource="http://purl.org/dc/dcmitype/StillImage" /></cc:Work></rdf:RDF></metadata><defs
     id="defs6"><clipPath
       id="clipPath18"
       clipPathUnits="userSpaceOnUse"><path
         id="path16"
         d="M 0,11.99 H 12.545 V 0 H 0 Z" /></clipPath></defs><g
     transform="matrix(1.3333333,0,0,-1.3333333,0,15.986933)"
     id="g10"><g
       id="g12"><g
         clip-path="url(#clipPath18)"
         id="g14"><g
           transform="translate(1.9902,6.7061)"
           id="g20"><path
             id="path22"
             style="fill:#d22856;fill-opacity:1;fill-rule:nonzero;stroke:none"
             d="m 0,0 c 0.208,-0.255 2.471,-2.839 4.243,-4.858 l 4.323,4.944 c 0.34,0.369 0.52,0.86 0.52,1.399 0,1.286 -1.045,2.331 -2.33,2.331 C 6.027,3.816 5.335,3.473 4.855,2.873 4.714,2.695 4.503,2.606 4.271,2.598 4.044,2.601 3.831,2.709 3.695,2.892 3.254,3.479 2.566,3.816 1.809,3.816 c -1.286,0 -2.33,-1.045 -2.33,-2.331 0,-0.677 0.275,-1.171 0.506,-1.466 C -0.01,0.013 -0.004,0.007 0,0 m 4.245,-6.706 c -0.212,0 -0.412,0.091 -0.552,0.249 -3.797,4.324 -4.643,5.298 -4.858,5.572 l -0.004,-0.003 c -0.529,0.675 -0.821,1.518 -0.821,2.373 0,2.095 1.704,3.799 3.799,3.799 0.933,0 1.803,-0.32 2.484,-0.898 0.696,0.578 1.56,0.898 2.463,0.898 2.095,0 3.799,-1.704 3.799,-3.799 0,-0.909 -0.319,-1.754 -0.897,-2.381 l -4.86,-5.56 c -0.14,-0.159 -0.341,-0.25 -0.552,-0.25 z" /></g></g></g></g></svg>
