<svg width="14" height="12">
  <defs/>
  <rect width="100%" height="100%" fill="none"/>
  <g class="currentLayer">
    <path fill="#d22856" d="M10.56 5.28c-.21.26-2.47 2.84-4.25 4.86L2 5.2a2.04 2.04 0 01-.52-1.4A2.33 2.33 0 013.8 1.47c.73 0 1.42.34 1.9.94a.76.76 0 00.59.28.73.73 0 00.57-.3 2.33 2.33 0 011.89-.92 2.33 2.33 0 012.33 2.33c0 .68-.28 1.17-.5 1.47l-.02.01M6.3 12a.74.74 0 00.55-.25c3.8-4.32 4.65-5.3 4.86-5.57a3.87 3.87 0 00.83-2.37A3.8 3.8 0 008.75 0c-.94 0-1.8.32-2.49.9C5.56.32 4.7 0 3.8 0A3.8 3.8 0 000 3.8c0 .9.32 1.75.9 2.38l4.86 5.56a.74.74 0 00.55.25z" class="selected"/>
  </g>
</svg>
