<svg xmlns="http://www.w3.org/2000/svg" width="27" height="34" viewBox="0 0 205.845 260.433">
  <defs/>
  <defs>
    <clipPath id="a" clipPathUnits="userSpaceOnUse">
      <path d="M0 195.325h154.384V0H0z"/>
    </clipPath>
  </defs>
  <path d="M191.803 93.807l-89.36-52.677v-.014l-.01.007-.012-.007v.014L14.043 93.746V23.438l88.881-9.319 88.879 9.319zm-.072 9.323l-24.315 14.325-11.225 6.613-53.532-31.845-.088 9.268 45.756 27.21-.406.24-.985.58-6.501 3.829-37.776-22.472-.088 9.268 29.816 17.73-7.035 4.706-.17.102-22.523-13.268-.088 9.267 14.778 8.704-15.054 9.039-88.059-52.346 88.185-53.006v.01zm.072 88.078l-88.88 52.884-88.88-52.884v-76.82l88.498 52.674.148 9.546-60.712-36.133-.089 9.268 60.953 36.633.151 9.8-60.933-36.248-.088 9.267 60.952 36.633 61.536-36.82v-9.31l-.076.045V129.47l27.42-16.375zM103.996.782L102.92.67.667 11.39v187.424l102.256 60.844 102.256-60.844V11.39z"/>
  <g clip-path="url(#a)" transform="matrix(1.33333 0 0 -1.33333 0 260.433)">
    <path fill="none" stroke="#231f20" stroke-miterlimit="10" d="M143.852 124.97l-67.02 39.508v.01l-.008-.005-.008.005v-.01l-66.284-39.462v52.73l66.661 6.99 66.66-6.99zm-.054-6.992l-18.236-10.744-8.419-4.96-40.149 23.884-.066-6.951L111.245 98.8l-.304-.18-.739-.435-4.876-2.872-28.332 16.854-.066-6.951L99.29 91.918l-5.276-3.53-.128-.076-16.892 9.95-.066-6.95 11.084-6.527-11.29-6.78-66.045 39.26 66.14 39.755v-.007zm.054-66.06l-66.66-39.662-66.66 39.663v57.615l66.374-39.505.111-7.16-45.534 27.1-.067-6.951 45.715-27.475.113-7.35-45.7 27.186-.066-6.95 45.714-27.475 46.152 27.616v6.982l-.057-.034v22.705l20.565 12.28zm-65.855 142.82l-.807.085-76.69-8.04V46.215L77.192.582l76.692 45.633v140.568z"/>
  </g>
</svg>
