<?xml version="1.0" encoding="UTF-8" standalone="no"?>
<svg
   xmlns:dc="http://purl.org/dc/elements/1.1/"
   xmlns:cc="http://creativecommons.org/ns#"
   xmlns:rdf="http://www.w3.org/1999/02/22-rdf-syntax-ns#"
   xmlns:svg="http://www.w3.org/2000/svg"
   xmlns="http://www.w3.org/2000/svg"
   viewBox="0 0 205.84534 260.43332"
   height="260.43332"
   width="205.84534"
   xml:space="preserve"
   id="svg2"
   version="1.1"><metadata
     id="metadata8"><rdf:RDF><cc:Work
         rdf:about=""><dc:format>image/svg+xml</dc:format><dc:type
           rdf:resource="http://purl.org/dc/dcmitype/StillImage" /></cc:Work></rdf:RDF></metadata><defs
     id="defs6"><clipPath
       id="clipPath22"
       clipPathUnits="userSpaceOnUse"><path
         id="path20"
         d="M 0,195.325 H 154.384 V 0 H 0 Z" /></clipPath></defs><g
     transform="matrix(1.3333333,0,0,-1.3333333,0,260.43333)"
     id="g10"><g
       transform="translate(143.8521,124.9697)"
       id="g12"><path
         id="path14"
         style="fill:#d22856;fill-opacity:1;fill-rule:nonzero;stroke:none"
         d="m 0,0 -67.02,39.508 v 0.01 l -0.008,-0.005 -0.008,0.005 v -0.01 L -133.32,0.046 V 52.777 L -66.659,59.766 0,52.777 Z m -0.054,-6.992 -18.236,-10.744 -8.419,-4.96 -40.149,23.884 -0.066,-6.951 34.317,-20.407 -0.304,-0.18 -0.739,-0.435 -4.876,-2.872 -28.332,16.854 -0.066,-6.951 22.362,-13.298 -5.276,-3.529 -0.128,-0.077 -16.892,9.951 -0.066,-6.95 11.084,-6.528 -11.291,-6.779 -66.044,39.259 66.139,39.755 V 32.043 Z M 0,-73.051 l -66.66,-39.663 -66.66,39.663 v 57.615 l 66.374,-39.505 0.111,-7.16 -45.534,27.1 -0.067,-6.951 45.715,-27.475 0.113,-7.349 -45.7,27.185 -0.066,-6.95 45.714,-27.475 46.152,27.616 v 6.982 l -0.057,-0.034 v 2.386 2.864 17.455 L 0,-14.466 Z m -65.855,142.82 -0.807,0.084 -76.69,-8.04 V -78.755 l 76.692,-45.633 76.692,45.633 V 61.813 Z" /></g><g
       id="g16"><g
         clip-path="url(#clipPath22)"
         id="g18"><g
           transform="translate(143.8521,124.9697)"
           id="g24"><path
             id="path26"
             style="fill:none;stroke:#231f20;stroke-width:1;stroke-linecap:butt;stroke-linejoin:miter;stroke-miterlimit:10;stroke-dasharray:none;stroke-opacity:1"
             d="m 0,0 -67.02,39.508 v 0.01 l -0.008,-0.005 -0.008,0.005 v -0.01 L -133.32,0.046 V 52.777 L -66.659,59.766 0,52.777 Z m -0.054,-6.992 -18.236,-10.744 -8.419,-4.96 -40.149,23.884 -0.066,-6.951 34.317,-20.407 -0.304,-0.18 -0.739,-0.435 -4.876,-2.872 -28.332,16.854 -0.066,-6.951 22.362,-13.298 -5.276,-3.529 -0.128,-0.077 -16.892,9.951 -0.066,-6.95 11.084,-6.528 -11.291,-6.779 -66.044,39.259 66.139,39.755 V 32.043 Z M 0,-73.051 l -66.66,-39.663 -66.66,39.663 v 57.615 l 66.374,-39.505 0.111,-7.16 -45.534,27.1 -0.067,-6.951 45.715,-27.475 0.113,-7.349 -45.7,27.185 -0.066,-6.95 45.714,-27.475 46.152,27.616 v 6.982 l -0.057,-0.034 v 2.386 2.864 17.455 L 0,-14.466 Z m -65.855,142.82 -0.807,0.084 -76.69,-8.04 V -78.755 l 76.692,-45.633 76.692,45.633 V 61.813 Z" /></g></g></g></g></svg>
