<?xml version="1.0" encoding="UTF-8" standalone="no"?>
<svg
   xmlns:dc="http://purl.org/dc/elements/1.1/"
   xmlns:cc="http://creativecommons.org/ns#"
   xmlns:rdf="http://www.w3.org/1999/02/22-rdf-syntax-ns#"
   xmlns:svg="http://www.w3.org/2000/svg"
   xmlns="http://www.w3.org/2000/svg"
   viewBox="0 0 195.06667 53.833332"
   height="53.833332"
   width="195.06667"
   xml:space="preserve"
   id="svg2"
   version="1.1"><metadata
     id="metadata8"><rdf:RDF><cc:Work
         rdf:about=""><dc:format>image/svg+xml</dc:format><dc:type
           rdf:resource="http://purl.org/dc/dcmitype/StillImage" /></cc:Work></rdf:RDF></metadata><defs
     id="defs6"><clipPath
       id="clipPath18"
       clipPathUnits="userSpaceOnUse"><path
         id="path16"
         d="M 0,40.375 H 146.3 V 0 H 0 Z" /></clipPath></defs><g
     transform="matrix(1.3333333,0,0,-1.3333333,0,53.833333)"
     id="g10"><g
       id="g12"><g
         clip-path="url(#clipPath18)"
         id="g14"><g
           transform="translate(79.9878,10.7344)"
           id="g20"><path
             id="path22"
             style="fill:#ffffff;fill-opacity:1;fill-rule:nonzero;stroke:none"
             d="m 0,0 c 3.734,0 6.182,1.996 6.182,4.959 v 0.062 c 0,3.221 -2.414,4.895 -6.053,4.895 H -5.57 V -0.002 H 0 Z m -8.114,10.979 c 0,0.709 0.58,1.289 1.256,1.289 h 7.18 c 5.087,0 8.436,-2.705 8.436,-7.147 V 5.058 c 0,-4.861 -4.057,-7.373 -8.854,-7.373 H -5.57 v -6.826 c 0,-0.708 -0.58,-1.287 -1.289,-1.287 -0.676,0 -1.256,0.58 -1.256,1.287 v 20.12 z" /></g><g
           transform="translate(93.603,21.875)"
           id="g24"><path
             id="path26"
             style="fill:#ffffff;fill-opacity:1;fill-rule:nonzero;stroke:none"
             d="M 0,0 C 0,0.708 0.579,1.288 1.255,1.288 1.964,1.288 2.543,0.708 2.543,0 v -20.283 c 0,-0.708 -0.579,-1.287 -1.288,-1.287 -0.676,0 -1.255,0.579 -1.255,1.287 z" /></g><g
           transform="translate(102.7437,21.8428)"
           id="g28"><path
             id="path30"
             style="fill:#ffffff;fill-opacity:1;fill-rule:nonzero;stroke:none"
             d="M 0,0 C 0,0.676 0.58,1.256 1.256,1.256 H 1.61 c 0.58,0 0.935,-0.29 1.288,-0.74 l 13.684,-17.45 V 0.064 c 0,0.676 0.547,1.256 1.256,1.256 0.676,0 1.225,-0.58 1.225,-1.256 v -20.348 c 0,-0.677 -0.481,-1.191 -1.159,-1.191 h -0.129 c -0.547,0 -0.935,0.322 -1.318,0.773 L 2.481,-2.835 v -17.449 c 0,-0.677 -0.546,-1.257 -1.256,-1.257 -0.676,0 -1.223,0.58 -1.223,1.257 L 0.002,0 Z" /></g><g
           transform="translate(128.1733,21.875)"
           id="g32"><path
             id="path34"
             style="fill:#ffffff;fill-opacity:1;fill-rule:nonzero;stroke:none"
             d="M 0,0 C 0,0.708 0.58,1.288 1.257,1.288 1.965,1.288 2.543,0.708 2.543,0 V -12.331 L 15.391,0.837 c 0.29,0.257 0.579,0.451 0.998,0.451 0.675,0 1.224,-0.612 1.224,-1.256 0,-0.354 -0.162,-0.644 -0.42,-0.901 l -7.984,-7.92 8.564,-10.561 c 0.225,-0.291 0.354,-0.546 0.354,-0.935 0,-0.676 -0.577,-1.288 -1.285,-1.288 -0.483,0 -0.807,0.259 -1.03,0.58 L 7.41,-10.529 2.547,-15.391 v -4.894 c 0,-0.708 -0.578,-1.288 -1.286,-1.288 -0.677,0 -1.257,0.58 -1.257,1.288 L 0.004,0 Z" /></g><g
           transform="translate(98.4976,30.5)"
           id="g36"><path
             id="path38"
             style="fill:#d22856;fill-opacity:1;fill-rule:nonzero;stroke:none"
             d="M 0,0 C -2.002,0 -3.623,1.623 -3.623,3.624 -3.623,1.623 -5.246,0 -7.248,0 -5.246,0 -3.623,-1.623 -3.623,-3.624 -3.623,-1.623 -2.002,0 0,0" /></g><g
           transform="translate(43.0938,21.062)"
           id="g40"><path
             id="path42"
             style="fill:#ffffff;fill-opacity:1;fill-rule:nonzero;stroke:none"
             d="M 0,0 C 0.246,0 0.489,-0.014 0.73,-0.033 0.293,0.695 -0.497,1.188 -1.406,1.188 -2.283,1.188 -3.02,1.756 -3.29,2.542 -4.017,2.334 -4.715,2.06 -5.379,1.726 c 0.062,-0.017 0.122,-0.038 0.188,-0.038 1.104,0 2,-0.896 2,-2 0,-0.096 -0.015,-0.188 -0.028,-0.281 C -2.219,-0.211 -1.135,0 0,0" /></g><g
           transform="translate(60.4619,12.3594)"
           id="g44"><path
             id="path46"
             style="fill:#ffffff;fill-opacity:1;fill-rule:nonzero;stroke:none"
             d="m 0,0 c -0.002,0.009 -5.175,21.365 -5.175,21.365 -0.361,2.347 -2.593,6.651 -8.599,6.651 -0.829,0 -1.5,-0.671 -1.5,-1.5 0,-0.829 0.671,-1.5 1.5,-1.5 4.856,0 5.575,-3.729 5.639,-4.143 L -3.368,1.172 h -2.073 c -0.445,3.557 -2.453,6.628 -5.305,8.522 -0.897,-0.38 -1.529,-1.269 -1.529,-2.303 0,-0.088 -0.015,-0.171 -0.026,-0.256 1.991,-1.359 3.415,-3.489 3.829,-5.965 0.082,-0.488 0.135,-0.987 0.135,-1.5 0,-0.512 -0.053,-1.012 -0.135,-1.5 -0.716,-4.272 -4.421,-7.53 -8.896,-7.53 -4.475,0 -8.181,3.258 -8.896,7.53 -0.082,0.488 -0.135,0.988 -0.135,1.5 0,0.513 0.053,1.012 0.135,1.5 0.147,0.879 0.427,1.712 0.808,2.484 -1.034,0.077 -1.852,0.932 -1.852,1.985 0,0.189 -0.077,0.357 -0.192,0.488 -0.938,-1.469 -1.569,-3.149 -1.795,-4.957 h -1.82 c -0.741,5.927 -5.802,10.531 -11.927,10.531 -6.125,0 -11.185,-4.602 -11.927,-10.529 h -2.073 l 4.767,19.701 c 0.063,0.414 0.783,4.143 5.639,4.143 0.829,0 1.5,0.671 1.5,1.5 0,0.829 -0.671,1.5 -1.5,1.5 -6.006,0 -8.238,-4.304 -8.599,-6.651 0,0 -5.173,-21.356 -5.175,-21.365 -0.266,-1.109 0.531,-1.826 1.426,-1.826 0.012,0 0.023,-0.004 0.036,-0.004 h 3.982 c 0.079,-0.629 0.215,-1.237 0.387,-1.831 0.059,0.106 0.102,0.223 0.102,0.353 0,1.105 0.896,2 2,2 0.166,0 0.324,-0.024 0.478,-0.062 -0.043,0.343 -0.074,0.687 -0.074,1.042 0,0.512 0.053,1.011 0.135,1.5 0.715,4.27 4.421,7.531 8.896,7.531 4.475,0 8.18,-3.261 8.896,-7.531 0.082,-0.489 0.135,-0.988 0.135,-1.5 0,-0.512 -0.053,-1.012 -0.135,-1.5 -0.715,-4.273 -4.421,-7.531 -8.896,-7.531 -2.022,0 -3.883,0.67 -5.386,1.794 -0.35,-0.302 -0.8,-0.492 -1.299,-0.492 -0.413,0 -0.749,-0.336 -0.749,-0.748 0,-0.289 -0.065,-0.563 -0.176,-0.811 2.075,-1.708 4.722,-2.743 7.614,-2.743 6.125,0 11.185,4.603 11.927,10.529 h 1.814 c 0.742,-5.926 5.802,-10.529 11.927,-10.529 6.125,0 11.186,4.603 11.927,10.529 h 3.981 c 0.012,0 0.023,0.005 0.036,0.005 C -0.531,-1.826 0.266,-1.109 0,0" /></g><g
           transform="translate(50.686,24.25)"
           id="g48"><path
             id="path50"
             style="fill:#d22856;fill-opacity:1;fill-rule:nonzero;stroke:none"
             d="M 0,0 C -2.485,0 -4.499,2.014 -4.499,4.499 -4.499,2.014 -6.513,0 -8.998,0 -6.513,0 -4.499,-2.014 -4.499,-4.499 -4.499,-2.014 -2.486,0 0,0" /></g><g
           transform="translate(37.9038,20.749)"
           id="g52"><path
             id="path54"
             style="fill:#d22856;fill-opacity:1;fill-rule:nonzero;stroke:none"
             d="M 0,0 C -1.519,0 -2.749,1.23 -2.749,2.749 -2.749,1.23 -3.979,0 -5.498,0 -3.979,0 -2.749,-1.229 -2.749,-2.749 -2.749,-1.229 -1.518,0 0,0" /></g><g
           transform="translate(10.7339,6.3027)"
           id="g56"><path
             id="path58"
             style="fill:#d22856;fill-opacity:1;fill-rule:nonzero;stroke:none"
             d="M 0,0 C -1.519,0 -2.749,1.23 -2.749,2.75 -2.749,1.23 -3.979,0 -5.498,0 -3.979,0 -2.749,-1.229 -2.749,-2.748 -2.749,-1.23 -1.519,0 0,0" /></g></g></g></g></svg>