<svg xmlns="http://www.w3.org/2000/svg" width="147" height="40" viewBox="0 0 195.067 53.832">
  <defs/>
  <defs>
    <clipPath id="a" clipPathUnits="userSpaceOnUse">
      <path d="M0 40.374h146.3V0H0z"/>
    </clipPath>
  </defs>
  <g clip-path="url(#a)" transform="matrix(1.33333 0 0 -1.33333 0 53.832)">
    <path d="M79.988 10.733c3.734 0 6.182 1.996 6.182 4.96v.061c0 3.221-2.414 4.894-6.053 4.894h-5.7v-9.917h5.57zm-8.114 10.98c0 .708.58 1.288 1.256 1.288h7.18c5.087 0 8.436-2.705 8.436-7.147v-.062c0-4.86-4.057-7.373-8.854-7.373h-5.474V1.594c0-.709-.58-1.287-1.29-1.287-.676 0-1.256.58-1.256 1.287zM93.603 21.874c0 .708.579 1.288 1.255 1.288.709 0 1.288-.58 1.288-1.288V1.591A1.29 1.29 0 0094.858.304c-.676 0-1.255.579-1.255 1.287zM102.744 21.842c0 .676.58 1.256 1.256 1.256h.354c.58 0 .935-.29 1.288-.74l13.684-17.45v16.998c0 .676.547 1.256 1.256 1.256.676 0 1.225-.58 1.225-1.256V1.558c0-.678-.48-1.191-1.158-1.191h-.13c-.546 0-.935.322-1.316.773l-13.977 17.866V1.558c0-.678-.546-1.258-1.257-1.258-.676 0-1.223.58-1.223 1.258v20.284zM128.173 21.874c0 .708.58 1.288 1.257 1.288a1.29 1.29 0 001.286-1.288V9.543l12.848 13.168c.29.257.58.451.998.451.675 0 1.224-.612 1.224-1.256 0-.354-.162-.644-.42-.901l-7.984-7.92 8.564-10.561c.225-.291.354-.546.354-.936 0-.676-.576-1.288-1.284-1.288-.482 0-.808.26-1.03.58l-8.4 10.465-4.864-4.862V1.588A1.29 1.29 0 00129.436.3c-.677 0-1.257.58-1.257 1.288v20.286z"/>
    <path fill="#d22856" d="M98.498 30.499a3.623 3.623 0 00-3.623 3.624 3.625 3.625 0 00-3.625-3.624 3.625 3.625 0 003.625-3.624 3.623 3.623 0 003.623 3.624M43.094 21.061c.246 0 .489-.014.73-.033a2.491 2.491 0 01-2.136 1.221c-.877 0-1.614.568-1.884 1.354a11.977 11.977 0 01-2.09-.816c.063-.017.123-.038.189-.038a2 2 0 002-2c0-.096-.015-.188-.028-.281 1 .382 2.084.593 3.219.593"/>
    <path fill="#d22856" d="M60.462 12.358l-5.175 21.365c-.361 2.347-2.593 6.651-8.6 6.651a1.5 1.5 0 110-3c4.857 0 5.576-3.729 5.64-4.143l4.767-19.7H55.02c-.445 3.556-2.453 6.627-5.305 8.521a2.504 2.504 0 01-1.53-2.303c0-.088-.014-.17-.025-.256a9.036 9.036 0 003.829-5.965c.082-.488.135-.987.135-1.5 0-.512-.053-1.012-.135-1.5-.716-4.272-4.421-7.53-8.896-7.53-4.475 0-8.181 3.258-8.896 7.53a9.035 9.035 0 00-.135 1.5c0 .513.053 1.012.135 1.5.147.88.427 1.712.808 2.484a1.993 1.993 0 00-1.852 1.984.738.738 0 01-.192.487 11.945 11.945 0 01-1.795-4.957h-1.82c-.741 5.928-5.802 10.532-11.927 10.532S6.235 19.458 5.493 13.53H3.42l4.767 19.701c.063.414.783 4.143 5.639 4.143a1.5 1.5 0 110 3c-6.006 0-8.238-4.304-8.6-6.65L.053 12.357c-.266-1.109.53-1.826 1.426-1.826.012 0 .023-.004.036-.004h3.982c.079-.629.215-1.237.387-1.83a.722.722 0 01.102.352 2 2 0 002 2c.166 0 .324-.024.478-.06a8.324 8.324 0 00-.074 1.041c0 .512.053 1.011.135 1.5.715 4.27 4.42 7.531 8.896 7.531 4.475 0 8.18-3.26 8.896-7.53.082-.49.135-.989.135-1.5 0-.514-.053-1.014-.135-1.5C25.6 6.257 21.895 3 17.42 3c-2.022 0-3.883.67-5.386 1.794a1.98 1.98 0 00-1.3-.49.75.75 0 01-.748-.749c0-.289-.065-.563-.176-.812A11.94 11.94 0 0117.424 0c6.125 0 11.185 4.604 11.927 10.528h1.814C31.907 4.602 36.967 0 43.092 0s11.186 4.604 11.927 10.528h3.98c.013 0 .024.006.037.006.895-.002 1.692.715 1.426 1.824"/>
    <path d="M50.686 24.249a4.499 4.499 0 00-4.499 4.499 4.499 4.499 0 00-4.499-4.499 4.499 4.499 0 004.499-4.499 4.498 4.498 0 004.499 4.499M37.904 20.748a2.748 2.748 0 00-2.75 2.749 2.748 2.748 0 00-2.748-2.749 2.747 2.747 0 002.749-2.749 2.748 2.748 0 002.749 2.749M10.734 6.302a2.748 2.748 0 00-2.75 2.75c0-1.52-1.23-2.75-2.748-2.75a2.747 2.747 0 002.749-2.748 2.748 2.748 0 002.749 2.748"/>
  </g>
</svg>
