<svg xmlns="http://www.w3.org/2000/svg" width="147" height="40" viewBox="0 0 195.067 53.835">
  <defs/>
  <defs>
    <clipPath id="a" clipPathUnits="userSpaceOnUse">
      <path d="M0 40.376h146.3V0H0z"/>
    </clipPath>
  </defs>
  <g clip-path="url(#a)" transform="matrix(1.33333 0 0 -1.33333 0 53.835)">
    <path d="M79.988 10.735c3.734 0 6.182 1.996 6.182 4.96v.061c0 3.221-2.414 4.895-6.053 4.895h-5.7v-9.918h5.57zm-8.114 10.98c0 .708.58 1.288 1.256 1.288h7.18c5.087 0 8.436-2.705 8.436-7.147v-.063c0-4.86-4.057-7.373-8.854-7.373h-5.474V1.594c0-.708-.58-1.287-1.29-1.287-.675 0-1.255.58-1.255 1.287v20.12zM93.603 21.876c0 .708.579 1.288 1.255 1.288.709 0 1.288-.58 1.288-1.288V1.593A1.29 1.29 0 0094.858.306c-.676 0-1.255.579-1.255 1.287zM102.744 21.844c0 .676.58 1.256 1.256 1.256h.354c.58 0 .935-.29 1.288-.74l13.684-17.45v16.998c0 .676.547 1.256 1.256 1.256.676 0 1.225-.58 1.225-1.256V1.56c0-.677-.481-1.191-1.16-1.191h-.128c-.547 0-.935.322-1.318.773l-13.976 17.867V1.559c0-.676-.546-1.256-1.256-1.256-.676 0-1.223.58-1.223 1.257v20.284zM128.173 21.876c0 .708.58 1.288 1.257 1.288a1.29 1.29 0 001.286-1.288V9.545l12.848 13.168c.29.257.58.451.998.451.675 0 1.224-.612 1.224-1.256 0-.354-.162-.644-.42-.901l-7.984-7.92 8.564-10.561c.225-.291.354-.546.354-.935 0-.676-.577-1.288-1.285-1.288-.483 0-.807.259-1.03.58l-8.402 10.464-4.863-4.862V1.591a1.29 1.29 0 00-1.286-1.288c-.677 0-1.257.58-1.257 1.288v20.285zM51.99 10.532c-.716-4.272-4.42-7.53-8.896-7.53-4.475 0-8.18 3.258-8.896 7.53a9.035 9.035 0 00-.135 1.5c0 .512.053 1.011.135 1.5.716 4.271 4.421 7.531 8.896 7.531 4.475 0 8.181-3.26 8.896-7.53.082-.49.135-.989.135-1.5 0-.513-.053-1.013-.135-1.5m-25.675 0C25.6 6.26 21.895 3 17.42 3c-4.475 0-8.18 3.26-8.896 7.531a9.035 9.035 0 00-.135 1.5c0 .512.053 1.011.135 1.5.715 4.271 4.421 7.531 8.896 7.531 4.475 0 8.18-3.26 8.896-7.53.082-.49.135-.989.135-1.5 0-.513-.053-1.013-.135-1.5m34.147 1.827l-5.175 21.365c-.36 2.348-2.593 6.651-8.599 6.651a1.5 1.5 0 110-3c4.856 0 5.575-3.729 5.64-4.143l4.766-19.7h-2.073c-.742 5.926-5.802 10.53-11.927 10.53s-11.186-4.604-11.927-10.53h-1.82c-.74 5.926-5.802 10.53-11.927 10.53S6.235 19.46 5.493 13.533H3.42l4.767 19.7c.063.414.783 4.143 5.64 4.143a1.5 1.5 0 110 3c-6.007 0-8.239-4.303-8.6-6.65L.052 12.36c-.266-1.109.531-1.826 1.426-1.826.012 0 .023-.004.036-.004h3.982C6.237 4.604 11.298 0 17.423 0S28.608 4.604 29.35 10.53h1.814C31.906 4.604 36.966 0 43.091 0s11.186 4.604 11.927 10.53H59c.012 0 .023.004.036.004.895 0 1.692.717 1.426 1.826"/>
  </g>
</svg>
