<?xml version="1.0" encoding="UTF-8" standalone="no"?>
<svg
   xmlns:dc="http://purl.org/dc/elements/1.1/"
   xmlns:cc="http://creativecommons.org/ns#"
   xmlns:rdf="http://www.w3.org/1999/02/22-rdf-syntax-ns#"
   xmlns:svg="http://www.w3.org/2000/svg"
   xmlns="http://www.w3.org/2000/svg"
   viewBox="0 0 195.06667 53.834667"
   height="53.834667"
   width="195.06667"
   xml:space="preserve"
   id="svg2"
   version="1.1"><metadata
     id="metadata8"><rdf:RDF><cc:Work
         rdf:about=""><dc:format>image/svg+xml</dc:format><dc:type
           rdf:resource="http://purl.org/dc/dcmitype/StillImage" /></cc:Work></rdf:RDF></metadata><defs
     id="defs6"><clipPath
       id="clipPath18"
       clipPathUnits="userSpaceOnUse"><path
         id="path16"
         d="M 0,40.376 H 146.3 V 0 H 0 Z" /></clipPath></defs><g
     transform="matrix(1.3333333,0,0,-1.3333333,0,53.834667)"
     id="g10"><g
       id="g12"><g
         clip-path="url(#clipPath18)"
         id="g14"><g
           transform="translate(79.9878,10.7354)"
           id="g20"><path
             id="path22"
             style="fill:#ffffff;fill-opacity:1;fill-rule:nonzero;stroke:none"
             d="m 0,0 c 3.734,0 6.182,1.996 6.182,4.959 v 0.062 c 0,3.221 -2.414,4.895 -6.053,4.895 H -5.57 V -0.002 H 0 Z m -8.114,10.979 c 0,0.709 0.58,1.289 1.256,1.289 h 7.18 c 5.087,0 8.436,-2.705 8.436,-7.147 V 5.058 c 0,-4.861 -4.057,-7.373 -8.854,-7.373 H -5.57 v -6.826 c 0,-0.708 -0.58,-1.287 -1.289,-1.287 -0.676,0 -1.256,0.58 -1.256,1.287 v 20.12 z" /></g><g
           transform="translate(93.603,21.876)"
           id="g24"><path
             id="path26"
             style="fill:#ffffff;fill-opacity:1;fill-rule:nonzero;stroke:none"
             d="M 0,0 C 0,0.708 0.579,1.288 1.255,1.288 1.964,1.288 2.543,0.708 2.543,0 v -20.283 c 0,-0.708 -0.579,-1.287 -1.288,-1.287 -0.676,0 -1.255,0.579 -1.255,1.287 z" /></g><g
           transform="translate(102.7437,21.8438)"
           id="g28"><path
             id="path30"
             style="fill:#ffffff;fill-opacity:1;fill-rule:nonzero;stroke:none"
             d="M 0,0 C 0,0.676 0.58,1.256 1.256,1.256 H 1.61 c 0.58,0 0.935,-0.29 1.288,-0.74 l 13.684,-17.45 V 0.064 c 0,0.676 0.547,1.256 1.256,1.256 0.676,0 1.225,-0.58 1.225,-1.256 v -20.348 c 0,-0.677 -0.481,-1.191 -1.159,-1.191 h -0.129 c -0.547,0 -0.935,0.322 -1.318,0.773 L 2.481,-2.835 v -17.449 c 0,-0.677 -0.546,-1.257 -1.256,-1.257 -0.676,0 -1.223,0.58 -1.223,1.257 L 0.002,0 Z" /></g><g
           transform="translate(128.1733,21.876)"
           id="g32"><path
             id="path34"
             style="fill:#ffffff;fill-opacity:1;fill-rule:nonzero;stroke:none"
             d="M 0,0 C 0,0.708 0.58,1.288 1.257,1.288 1.965,1.288 2.543,0.708 2.543,0 V -12.331 L 15.391,0.837 c 0.29,0.257 0.579,0.451 0.998,0.451 0.675,0 1.224,-0.612 1.224,-1.256 0,-0.354 -0.162,-0.644 -0.42,-0.901 l -7.984,-7.92 8.564,-10.561 c 0.225,-0.291 0.354,-0.546 0.354,-0.935 0,-0.676 -0.577,-1.288 -1.285,-1.288 -0.483,0 -0.807,0.259 -1.03,0.58 L 7.41,-10.529 2.547,-15.391 v -4.894 c 0,-0.708 -0.578,-1.288 -1.286,-1.288 -0.677,0 -1.257,0.58 -1.257,1.288 L 0.004,0 Z" /></g><g
           transform="translate(51.9902,10.5322)"
           id="g36"><path
             id="path38"
             style="fill:#ffffff;fill-opacity:1;fill-rule:nonzero;stroke:none"
             d="m 0,0 c -0.716,-4.272 -4.421,-7.531 -8.896,-7.531 -4.475,0 -8.181,3.259 -8.896,7.531 -0.082,0.488 -0.135,0.988 -0.135,1.5 0,0.512 0.053,1.011 0.135,1.5 0.716,4.271 4.421,7.531 8.896,7.531 C -4.421,10.531 -0.715,7.271 0,3 0.082,2.511 0.135,2.012 0.135,1.5 0.135,0.988 0.082,0.488 0,0 m -25.675,0 c -0.715,-4.272 -4.421,-7.531 -8.896,-7.531 -4.475,0 -8.18,3.259 -8.896,7.531 -0.082,0.488 -0.135,0.988 -0.135,1.5 0,0.512 0.053,1.011 0.135,1.5 0.715,4.271 4.421,7.531 8.896,7.531 4.475,0 8.18,-3.26 8.896,-7.531 0.082,-0.489 0.135,-0.988 0.135,-1.5 0,-0.512 -0.053,-1.012 -0.135,-1.5 M 8.472,1.828 C 8.47,1.837 3.297,23.193 3.297,23.193 c -0.361,2.348 -2.593,6.651 -8.599,6.651 -0.829,0 -1.5,-0.671 -1.5,-1.5 0,-0.829 0.671,-1.5 1.5,-1.5 4.856,0 5.575,-3.729 5.639,-4.143 L 5.104,3 H 3.031 C 2.289,8.927 -2.771,13.531 -8.896,13.531 -15.021,13.531 -20.082,8.927 -20.823,3 h -1.82 c -0.741,5.927 -5.802,10.531 -11.927,10.531 -6.125,0 -11.185,-4.604 -11.927,-10.531 h -2.073 l 4.767,19.701 c 0.063,0.414 0.783,4.143 5.639,4.143 0.829,0 1.5,0.671 1.5,1.5 0,0.829 -0.671,1.5 -1.5,1.5 -6.006,0 -8.238,-4.303 -8.599,-6.651 0,0 -5.173,-21.356 -5.175,-21.365 -0.266,-1.109 0.531,-1.826 1.426,-1.826 0.012,0 0.023,-0.004 0.036,-0.004 h 3.982 c 0.741,-5.926 5.802,-10.53 11.927,-10.53 6.125,0 11.185,4.604 11.927,10.53 h 1.814 c 0.742,-5.926 5.802,-10.53 11.927,-10.53 6.125,0 11.186,4.604 11.927,10.53 H 7.01 c 0.012,0 0.023,0.004 0.036,0.004 0.895,0 1.692,0.717 1.426,1.826" /></g></g></g></g></svg>