<svg xmlns="http://www.w3.org/2000/svg" width="75" height="22" viewBox="0 0 99.236 30.481">
  <defs/>
  <defs>
    <clipPath id="a" clipPathUnits="userSpaceOnUse">
      <path d="M0 22.86h74.427V0H0z"/>
    </clipPath>
  </defs>
  <g clip-path="url(#a)" transform="matrix(1.33333 0 0 -1.33333 0 30.48)">
    <path d="M8.114 10.432c3.734 0 6.182 1.996 6.182 4.958v.065c0 3.22-2.415 4.895-6.054 4.895H2.544v-9.918zM0 21.41C0 22.12.58 22.7 1.256 22.7h7.18c5.087 0 8.436-2.705 8.436-7.148v-.063c0-4.862-4.057-7.373-8.854-7.373H2.544V1.29c0-.708-.58-1.288-1.288-1.288C.58 0 0 .58 0 1.289zM21.729 21.572c0 .708.579 1.288 1.254 1.288.709 0 1.288-.58 1.288-1.288V1.29c0-.708-.579-1.288-1.288-1.288-.676 0-1.255.58-1.255 1.288v20.283zM30.87 21.54c0 .676.58 1.256 1.256 1.256h.354c.58 0 .934-.29 1.288-.74l13.684-17.45v16.998a1.256 1.256 0 001.255 1.256c.676 0 1.223-.58 1.223-1.256V1.256c0-.676-.482-1.191-1.159-1.191h-.129c-.546 0-.933.322-1.319.772L33.35 18.707V1.257c0-.676-.547-1.256-1.255-1.256-.677 0-1.224.58-1.224 1.256zM56.3 21.572c0 .708.579 1.288 1.257 1.288.707 0 1.286-.58 1.286-1.288V9.242L71.69 22.408c.289.258.58.451.998.451.676 0 1.224-.612 1.224-1.256 0-.354-.161-.644-.42-.9l-7.983-7.92L74.073 2.22c.225-.29.354-.546.354-.933C74.427.612 73.847 0 73.14 0c-.484 0-.807.258-1.031.58l-8.403 10.463-4.861-4.862V1.288C58.846.58 58.266 0 57.559 0c-.678 0-1.257.58-1.257 1.288v20.284z"/>
  </g>
</svg>
