<?xml version="1.0" encoding="UTF-8" standalone="no"?>
<svg
   xmlns:dc="http://purl.org/dc/elements/1.1/"
   xmlns:cc="http://creativecommons.org/ns#"
   xmlns:rdf="http://www.w3.org/1999/02/22-rdf-syntax-ns#"
   xmlns:svg="http://www.w3.org/2000/svg"
   xmlns="http://www.w3.org/2000/svg"
   viewBox="0 0 99.235733 30.480534"
   height="30.480534"
   width="99.235733"
   xml:space="preserve"
   id="svg2"
   version="1.1"><metadata
     id="metadata8"><rdf:RDF><cc:Work
         rdf:about=""><dc:format>image/svg+xml</dc:format><dc:type
           rdf:resource="http://purl.org/dc/dcmitype/StillImage" /></cc:Work></rdf:RDF></metadata><defs
     id="defs6"><clipPath
       id="clipPath18"
       clipPathUnits="userSpaceOnUse"><path
         id="path16"
         d="M 0,22.86 H 74.427 V 0 H 0 Z" /></clipPath></defs><g
     transform="matrix(1.3333333,0,0,-1.3333333,0,30.480533)"
     id="g10"><g
       id="g12"><g
         clip-path="url(#clipPath18)"
         id="g14"><g
           transform="translate(8.1143,10.4316)"
           id="g20"><path
             id="path22"
             style="fill:#ffffff;fill-opacity:1;fill-rule:nonzero;stroke:none"
             d="m 0,0 c 3.734,0 6.182,1.996 6.182,4.958 v 0.065 c 0,3.22 -2.415,4.895 -6.054,4.895 H -5.57 V 0 Z m -8.114,10.979 c 0,0.709 0.58,1.289 1.256,1.289 h 7.18 c 5.087,0 8.436,-2.705 8.436,-7.148 V 5.057 c 0,-4.862 -4.057,-7.373 -8.854,-7.373 H -5.57 v -6.826 c 0,-0.708 -0.58,-1.288 -1.288,-1.288 -0.676,-10e-4 -1.256,0.579 -1.256,1.287 z" /></g><g
           transform="translate(21.729,21.5723)"
           id="g24"><path
             id="path26"
             style="fill:#ffffff;fill-opacity:1;fill-rule:nonzero;stroke:none"
             d="M 0,0 C 0,0.708 0.579,1.288 1.254,1.288 1.963,1.288 2.542,0.708 2.542,0 v -20.283 c 0,-0.708 -0.579,-1.288 -1.288,-1.288 -0.676,0 -1.255,0.58 -1.255,1.288 l 0,20.283 z" /></g><g
           transform="translate(30.8701,21.54)"
           id="g28"><path
             id="path30"
             style="fill:#ffffff;fill-opacity:1;fill-rule:nonzero;stroke:none"
             d="M 0,0 C 0,0.676 0.579,1.256 1.256,1.256 H 1.61 c 0.58,0 0.934,-0.29 1.288,-0.74 l 13.684,-17.45 V 0.064 c -0.001,0.676 0.546,1.256 1.255,1.256 0.676,0 1.223,-0.58 1.223,-1.256 v -20.348 c 0,-0.676 -0.482,-1.191 -1.159,-1.191 h -0.129 c -0.546,0 -0.933,0.322 -1.319,0.772 L 2.479,-2.833 v -17.45 c 0,-0.676 -0.547,-1.256 -1.255,-1.256 -0.677,0 -1.224,0.58 -1.224,1.256 z" /></g><g
           transform="translate(56.2998,21.5723)"
           id="g32"><path
             id="path34"
             style="fill:#ffffff;fill-opacity:1;fill-rule:nonzero;stroke:none"
             d="M 0,0 C 0,0.708 0.579,1.288 1.257,1.288 1.964,1.288 2.543,0.708 2.543,0 V -12.331 L 15.39,0.837 c 0.289,0.258 0.58,0.451 0.998,0.451 0.676,0 1.224,-0.612 1.224,-1.256 0,-0.354 -0.161,-0.644 -0.419,-0.901 l -7.984,-7.92 8.564,-10.562 c 0.225,-0.29 0.354,-0.546 0.354,-0.933 0,-0.676 -0.579,-1.288 -1.286,-1.288 -0.484,0 -0.807,0.258 -1.031,0.58 l -8.403,10.463 -4.861,-4.862 v -4.893 c 0,-0.708 -0.58,-1.288 -1.287,-1.288 -0.678,0 -1.257,0.58 -1.257,1.288 L 0.002,0 Z" /></g></g></g></g></svg>