<svg xmlns="http://www.w3.org/2000/svg" width="26.263" height="26.26">
  <defs/>
  <defs>
    <clipPath id="a" clipPathUnits="userSpaceOnUse">
      <path d="M0 19.695h19.697V0H0z"/>
    </clipPath>
  </defs>
  <g clip-path="url(#a)" transform="matrix(1.33333 0 0 -1.33333 0 26.26)">
    <path fill="#d22856" d="M9.849 10.668a3.28 3.28 0 003.28-3.282 3.28 3.28 0 00-3.28-3.282 3.28 3.28 0 00-3.281 3.282 3.28 3.28 0 003.28 3.282m-1.231 2.053v1.023a1.024 1.024 0 11-2.049 0v-1.023L1.03 6.808a2.056 2.056 0 01-.62-1.47V3.691c0-.907.735-1.642 1.64-1.642h.412V1.025a1.026 1.026 0 012.05 0v1.024h10.67V1.025a1.025 1.025 0 112.05 0v1.024h.412c.904 0 1.64.734 1.64 1.642v1.647c0 .575-.237 1.094-.62 1.47l-5.535 5.913v1.023a1.025 1.025 0 11-2.051 0v-1.023zm1.232-3.696a1.64 1.64 0 110-3.281 1.642 1.642 0 010 3.281m0 10.67c-3.51 0-7.025-.628-8.303-1.878-1.057-1.04-1.412-2.874-1.53-4.035 0 0-.016-.114-.016-.165a.82.82 0 01.82-.819c.053 0 2.028.161 3.217.259.03.004.059.007.086.016a.821.821 0 01.8.82l.004 1.617c0 .5.407.901.907.901h8.028a.904.904 0 00.907-.901l.003-1.617a.82.82 0 01.802-.821.557.557 0 01.085-.016c1.19-.098 3.164-.259 3.216-.259.452 0 .823.365.823.819 0 .051-.018.165-.018.165-.118 1.161-.473 2.995-1.53 4.035-1.277 1.251-4.793 1.879-8.301 1.879"/>
  </g>
</svg>
