<?xml version="1.0" encoding="UTF-8" standalone="no"?>
<svg
   xmlns:dc="http://purl.org/dc/elements/1.1/"
   xmlns:cc="http://creativecommons.org/ns#"
   xmlns:rdf="http://www.w3.org/1999/02/22-rdf-syntax-ns#"
   xmlns:svg="http://www.w3.org/2000/svg"
   xmlns="http://www.w3.org/2000/svg"
   viewBox="0 0 26.263067 26.260401"
   height="26.260401"
   width="26.263067"
   xml:space="preserve"
   id="svg2"
   version="1.1"><metadata
     id="metadata8"><rdf:RDF><cc:Work
         rdf:about=""><dc:format>image/svg+xml</dc:format><dc:type
           rdf:resource="http://purl.org/dc/dcmitype/StillImage" /></cc:Work></rdf:RDF></metadata><defs
     id="defs6"><clipPath
       id="clipPath18"
       clipPathUnits="userSpaceOnUse"><path
         id="path16"
         d="M 0,19.695 H 19.697 V 0 H 0 Z" /></clipPath></defs><g
     transform="matrix(1.3333333,0,0,-1.3333333,0,26.2604)"
     id="g10"><g
       id="g12"><g
         clip-path="url(#clipPath18)"
         id="g14"><g
           transform="translate(9.8486,10.668)"
           id="g20"><path
             id="path22"
             style="fill:#d22856;fill-opacity:1;fill-rule:nonzero;stroke:none"
             d="m 0,0 c 1.813,0 3.281,-1.469 3.281,-3.282 0,-1.815 -1.468,-3.282 -3.281,-3.282 -1.813,0 -3.281,1.467 -3.281,3.282 C -3.281,-1.469 -1.814,0 0,0 m -1.232,2.053 v 1.023 c 0,0.568 -0.46,1.027 -1.026,1.027 -0.565,0 -1.023,-0.459 -1.023,-1.027 V 2.053 L -8.818,-3.86 c -0.382,-0.376 -0.62,-0.895 -0.62,-1.47 v -1.647 c 0,-0.907 0.735,-1.642 1.641,-1.642 h 0.411 v -1.024 c 0,-0.567 0.46,-1.025 1.027,-1.025 0.565,0 1.024,0.458 1.024,1.025 v 1.024 H 5.334 v -1.024 c 0,-0.567 0.46,-1.025 1.024,-1.025 0.568,0 1.027,0.458 1.027,1.025 v 1.024 h 0.411 c 0.904,0 1.64,0.734 1.64,1.642 v 1.647 c 0,0.575 -0.237,1.094 -0.619,1.47 L 3.281,2.053 V 3.076 C 3.281,3.644 2.822,4.103 2.258,4.103 1.69,4.103 1.23,3.644 1.23,3.076 V 2.053 Z M 0,-1.643 c -0.908,0 -1.644,-0.732 -1.644,-1.639 0,-0.907 0.735,-1.642 1.644,-1.642 0.905,0 1.641,0.734 1.641,1.642 C 1.64,-2.376 0.905,-1.643 0,-1.643 m 0,10.67 c -3.509,0 -7.025,-0.628 -8.303,-1.878 -1.057,-1.04 -1.412,-2.874 -1.529,-4.035 0,0 -0.017,-0.114 -0.017,-0.165 0,-0.454 0.37,-0.819 0.82,-0.819 0.053,0 2.028,0.161 3.217,0.259 0.03,0.004 0.059,0.007 0.086,0.016 0.444,0.013 0.801,0.372 0.801,0.82 l 0.003,1.617 c 0,0.5 0.407,0.901 0.907,0.901 H 4.013 C 4.512,5.743 4.92,5.342 4.92,4.842 L 4.923,3.225 C 4.923,2.777 5.278,2.417 5.725,2.404 5.752,2.396 5.78,2.392 5.81,2.388 7,2.29 8.974,2.129 9.026,2.129 c 0.452,0 0.823,0.365 0.823,0.819 0,0.051 -0.018,0.165 -0.018,0.165 C 9.713,4.274 9.358,6.108 8.301,7.148 7.024,8.399 3.508,9.027 0,9.027" /></g></g></g></g></svg>
