<svg xmlns="http://www.w3.org/2000/svg" width="104.896" height="85.052">
  <defs/>
  <defs>
    <clipPath id="a" clipPathUnits="userSpaceOnUse">
      <path d="M0 63.789h78.672V0H0z"/>
    </clipPath>
  </defs>
  <g clip-path="url(#a)" transform="matrix(1.33333 0 0 -1.33333 0 85.052)">
    <path fill="#efefef" d="M34.967 56.726l-4.254 7.063C28.272 62.294 0 51.582 0 24.172 0 16.942.336 0 18.9 0c11.187 0 13.94 10.28 13.94 13.584 0 21.977-21.382 14.178-21.382 14.178 0 18.07 19.805 26.843 23.509 28.964M78.672 56.726l-4.254 7.063c-2.44-1.495-30.713-12.207-30.713-39.617 0-7.23.337-24.172 18.9-24.172 11.187 0 13.939 10.28 13.939 13.584 0 21.977-21.381 14.178-21.381 14.178.002 18.07 19.806 26.843 23.509 28.964"/>
  </g>
</svg>
