<?xml version="1.0" encoding="UTF-8" standalone="no"?>
<svg
   xmlns:dc="http://purl.org/dc/elements/1.1/"
   xmlns:cc="http://creativecommons.org/ns#"
   xmlns:rdf="http://www.w3.org/1999/02/22-rdf-syntax-ns#"
   xmlns:svg="http://www.w3.org/2000/svg"
   xmlns="http://www.w3.org/2000/svg"
   viewBox="0 0 397.33334 460.12933"
   height="276"
   width="238"
   xml:space="preserve"
   id="svg2"
   version="1.1"><metadata
     id="metadata8"><rdf:RDF><cc:Work
         rdf:about=""><dc:format>image/svg+xml</dc:format><dc:type
           rdf:resource="http://purl.org/dc/dcmitype/StillImage" /></cc:Work></rdf:RDF></metadata><defs
     id="defs6"><clipPath
       id="clipPath18"
       clipPathUnits="userSpaceOnUse"><path
         id="path16"
         d="M 0,345.097 H 298 V 0 H 0 Z" /></clipPath></defs><g
     transform="matrix(1.3333333,0,0,-1.3333333,0,460.12933)"
     id="g10"><g
       id="g12"><g
         clip-path="url(#clipPath18)"
         id="g14"><g
           transform="translate(149,38.833)"
           id="g20"><path
             id="path22"
             style="fill:#dedede;fill-opacity:1;fill-rule:nonzero;stroke:none"
             d="m 0,0 c -60.844,0 -110.167,49.323 -110.167,110.167 0,60.844 49.323,110.167 110.167,110.167 60.843,0 110.167,-49.323 110.167,-110.167 C 110.167,49.323 60.843,0 0,0 m 115.568,204.209 5.355,5.355 c 7.718,7.717 9.124,18.938 3.126,24.935 -5.997,5.997 -17.217,4.59 -24.934,-3.127 l -5.386,-5.385 C 72.768,242.972 47.109,254.389 19,257.967 v 9.583 h 7.658 c 10.914,0 19.843,8.711 19.843,19.357 0,10.646 -8.928,19.357 -19.842,19.357 h -53.317 c -10.913,0 -19.842,-8.711 -19.842,-19.357 0,-10.646 8.929,-19.357 19.842,-19.357 H -19 v -9.583 c -73.319,-9.332 -130,-71.947 -130,-147.8 0,-82.291 66.709,-149 149,-149 82.29,0 149,66.709 149,149 0,35.663 -12.535,68.394 -33.432,94.042" /></g></g></g></g></svg>
