<svg xmlns="http://www.w3.org/2000/svg" width="238" height="276" viewBox="0 0 397.333 460.129">
  <defs/>
  <defs>
    <clipPath id="a" clipPathUnits="userSpaceOnUse">
      <path d="M0 345.097h298V0H0z"/>
    </clipPath>
  </defs>
  <g clip-path="url(#a)" transform="matrix(1.33333 0 0 -1.33333 0 460.13)">
    <path fill="#dedede" d="M149 38.833C88.156 38.833 38.833 88.156 38.833 149S88.156 259.167 149 259.167c60.843 0 110.167-49.323 110.167-110.167S209.843 38.833 149 38.833m115.568 204.209l5.355 5.355c7.718 7.717 9.124 18.938 3.126 24.935-5.997 5.997-17.217 4.59-24.934-3.127l-5.386-5.385c-20.961 16.985-46.62 28.402-74.729 31.98v9.583h7.658c10.914 0 19.843 8.711 19.843 19.357 0 10.646-8.928 19.357-19.842 19.357h-53.317c-10.913 0-19.842-8.711-19.842-19.357 0-10.646 8.929-19.357 19.842-19.357H130V296.8C56.681 287.468 0 224.853 0 149 0 66.709 66.709 0 149 0c82.29 0 149 66.709 149 149 0 35.663-12.535 68.394-33.432 94.042"/>
  </g>
</svg>
