<svg xmlns="http://www.w3.org/2000/svg" width="23.333" height="19.549">
  <defs/>
  <defs>
    <clipPath id="a" clipPathUnits="userSpaceOnUse">
      <path d="M0 14.662h17.5V0H0z"/>
    </clipPath>
  </defs>
  <g clip-path="url(#a)" transform="matrix(1.33333 0 0 -1.33333 0 19.55)">
    <path fill="#d22856" d="M11.283 14.51c1.736.485 3.074-.263 3.685-1.151.694.226 1.372.47 2.072.69-.004-.84-.538-1.477-.883-1.726.704-.166 1.343.48 1.343.48-.175-.976-1.035-1.746-1.612-1.977C15.65 4.234 12.618-.13 5.508.003h-.46C4.624.003.757.452 0 1.846c2.341-.192 4.011.412 4.835 1.149-.989.293-2.76.465-3.07 2.88.362-.103.583-.221 1.228-.115C1.757 6.596.385 7.297.461 9.445c.294-.32 1.1-.523 1.381-.461-.725.235-2.03 3.28-.92 4.836 1.872-1.811 3.847-3.521 7.368-3.685.216 2.24 1.171 3.74 2.993 4.375"/>
  </g>
</svg>
