<?xml version="1.0" encoding="UTF-8" standalone="no"?>
<svg
   xmlns:dc="http://purl.org/dc/elements/1.1/"
   xmlns:cc="http://creativecommons.org/ns#"
   xmlns:rdf="http://www.w3.org/1999/02/22-rdf-syntax-ns#"
   xmlns:svg="http://www.w3.org/2000/svg"
   xmlns="http://www.w3.org/2000/svg"
   viewBox="0 0 23.333332 19.549467"
   height="19.549467"
   width="23.333332"
   xml:space="preserve"
   id="svg2"
   version="1.1"><metadata
     id="metadata8"><rdf:RDF><cc:Work
         rdf:about=""><dc:format>image/svg+xml</dc:format><dc:type
           rdf:resource="http://purl.org/dc/dcmitype/StillImage" /></cc:Work></rdf:RDF></metadata><defs
     id="defs6"><clipPath
       id="clipPath18"
       clipPathUnits="userSpaceOnUse"><path
         id="path16"
         d="M 0,14.662 H 17.5 V 0 H 0 Z" /></clipPath></defs><g
     transform="matrix(1.3333333,0,0,-1.3333333,0,19.549467)"
     id="g10"><g
       id="g12"><g
         clip-path="url(#clipPath18)"
         id="g14"><g
           transform="translate(11.2832,14.5098)"
           id="g20"><path
             id="path22"
             style="fill:#d22856;fill-opacity:1;fill-rule:nonzero;stroke:none"
             d="m 0,0 c 1.736,0.485 3.074,-0.263 3.685,-1.151 0.694,0.226 1.372,0.47 2.072,0.691 -0.004,-0.841 -0.538,-1.478 -0.883,-1.727 0.704,-0.166 1.343,0.48 1.343,0.48 C 6.042,-2.683 5.182,-3.453 4.605,-3.684 4.367,-10.276 1.334,-14.64 -5.776,-14.507 h -0.46 c -0.422,0 -4.29,0.449 -5.047,1.843 2.341,-0.192 4.011,0.412 4.835,1.149 -0.989,0.293 -2.761,0.465 -3.07,2.881 0.362,-0.104 0.583,-0.222 1.228,-0.116 -1.236,0.836 -2.608,1.537 -2.532,3.685 0.294,-0.32 1.1,-0.523 1.381,-0.461 -0.725,0.235 -2.03,3.281 -0.921,4.836 1.873,-1.811 3.848,-3.521 7.369,-3.685 C -2.777,-2.135 -1.822,-0.634 0,0" /></g></g></g></g></svg>
