<?xml version="1.0" encoding="UTF-8" standalone="no"?>
<svg
   xmlns:dc="http://purl.org/dc/elements/1.1/"
   xmlns:cc="http://creativecommons.org/ns#"
   xmlns:rdf="http://www.w3.org/1999/02/22-rdf-syntax-ns#"
   xmlns:svg="http://www.w3.org/2000/svg"
   xmlns="http://www.w3.org/2000/svg"
   viewBox="0 0 40.499332 28.916668"
   height="28.916668"
   width="40.499332"
   xml:space="preserve"
   id="svg2"
   version="1.1"><metadata
     id="metadata8"><rdf:RDF><cc:Work
         rdf:about=""><dc:format>image/svg+xml</dc:format><dc:type
           rdf:resource="http://purl.org/dc/dcmitype/StillImage" /></cc:Work></rdf:RDF></metadata><defs
     id="defs6"><clipPath
       id="clipPath18"
       clipPathUnits="userSpaceOnUse"><path
         id="path16"
         d="M 0,21.688 H 30.375 V 0 H 0 Z" /></clipPath></defs><g
     transform="matrix(1.3333333,0,0,-1.3333333,0,28.916667)"
     id="g10"><g
       id="g12"><g
         clip-path="url(#clipPath18)"
         id="g14"><g
           transform="translate(29.9351,21.248)"
           id="g20"><path
             id="path22"
             style="fill:#3dc644;fill-opacity:1;fill-rule:nonzero;stroke:none"
             d="M 0,0 C -0.586,0.586 -1.535,0.586 -2.121,0 L -19.748,-17.627 -27.375,-10 c -0.585,0.586 -1.535,0.586 -2.121,0 -0.586,-0.586 -0.586,-1.535 0,-2.121 l 8.688,-8.689 c 0.293,-0.293 0.678,-0.438 1.061,-0.438 0.385,0 0.768,0.145 1.061,0.438 L 0,-2.122 C 0.586,-1.536 0.586,-0.586 0,0" /></g></g></g></g></svg>
