<?xml version="1.0" encoding="UTF-8" standalone="no"?>
<svg
   xmlns:dc="http://purl.org/dc/elements/1.1/"
   xmlns:cc="http://creativecommons.org/ns#"
   xmlns:rdf="http://www.w3.org/1999/02/22-rdf-syntax-ns#"
   xmlns:svg="http://www.w3.org/2000/svg"
   xmlns="http://www.w3.org/2000/svg"
   viewBox="0 0 35.668667 35.668667"
   height="35.668667"
   width="35.668667"
   xml:space="preserve"
   id="svg2"
   version="1.1"><metadata
     id="metadata8"><rdf:RDF><cc:Work
         rdf:about=""><dc:format>image/svg+xml</dc:format><dc:type
           rdf:resource="http://purl.org/dc/dcmitype/StillImage" /></cc:Work></rdf:RDF></metadata><defs
     id="defs6"><clipPath
       id="clipPath18"
       clipPathUnits="userSpaceOnUse"><path
         id="path16"
         d="M 0,26.751 H 26.751 V 0 H 0 Z" /></clipPath></defs><g
     transform="matrix(1.3333333,0,0,-1.3333333,0,35.668667)"
     id="g10"><g
       id="g12"><g
         clip-path="url(#clipPath18)"
         id="g14"><g
           transform="translate(15.4976,13.375)"
           id="g20"><path
             id="path22"
             style="fill:#f25b26;fill-opacity:1;fill-rule:nonzero;stroke:none"
             d="m 0,0 10.814,10.814 c 0.586,0.585 0.586,1.535 0,2.121 -0.585,0.586 -1.535,0.586 -2.121,0 L -2.121,2.121 -12.935,12.937 c -0.586,0.586 -1.535,0.586 -2.121,0 -0.586,-0.585 -0.586,-1.535 0,-2.121 L -4.242,0.001 -15.058,-10.814 c -0.586,-0.586 -0.586,-1.536 0,-2.122 0.293,-0.293 0.677,-0.438 1.061,-0.438 0.384,0 0.768,0.145 1.061,0.438 L -2.121,-2.121 8.693,-12.936 c 0.293,-0.293 0.677,-0.439 1.061,-0.439 0.384,0 0.767,0.146 1.06,0.439 0.586,0.586 0.586,1.536 0,2.122 z" /></g></g></g></g></svg>
